<svg width="168" height="140" viewBox="0 0 168 140" fill="none" xmlns="http://www.w3.org/2000/svg">
  <path d="M116.682 69.6032C118.615 69.8272 120.363 69.9781 120.494 71.873C120.628 73.8109 118.744 74.1113 117.397 74.5834C106.975 78.2347 96.097 79.7181 85.2282 81.2157C78.8003 82.1014 72.3609 82.9034 65.9279 83.7521C63.8872 84.0213 62.0946 84.5958 61.0245 86.6571C55.1957 97.8842 48.946 108.909 44.7533 120.911C44.3697 122.009 44.0909 123.149 43.834 124.285C43.5242 125.656 43.5799 127.017 44.8973 127.853C46.0893 128.609 47.1298 127.79 48.1219 127.214C51.0861 125.492 52.8851 122.597 55.1197 120.147C56.5617 118.566 57.8476 116.829 60.2352 117.09C60.5532 117.622 60.935 118.011 60.8563 118.166C57.2506 125.277 52.995 131.979 46.8699 137.17C43.2971 140.198 39.0221 139.401 34.9922 137.838C32.3106 136.798 32.024 134.572 32.4857 132.032C34.0492 123.432 37.4172 115.457 41.0208 107.582C44.2542 100.517 47.6987 93.5474 50.9821 86.6775C48.9507 84.4784 46.8198 85.4695 44.9378 85.2677C41.5109 84.9003 38.7001 83.6977 37.9734 79.9925C37.3006 76.5618 39.6588 74.8628 42.2705 73.4579C47.2597 70.7741 52.2194 69.1912 57.3347 75.2428C61.5364 65.1145 69.6302 57.9494 69.2056 46.9102C69.1749 46.1125 69.3897 45.2232 69.748 44.505C74.8724 34.2333 82.1582 25.9721 92.6527 21.0101C98.7136 18.1444 104.396 20.0792 109.589 23.6126C111.54 24.9403 113.04 26.7616 111.953 29.6303C103.181 29.3738 97.1915 34.4749 91.9268 40.3079C83.4238 49.7286 76.4433 60.3095 69.968 71.211C69.47 72.0494 68.8631 72.9061 69.5309 74.537C85.008 72.9748 100.486 69.7506 116.682 69.6032Z" fill="#E9644E" stroke="#E9644E" stroke-width="6"/>
  <path d="M22.1684 24.8834C15.3769 29.5905 10.6106 35.3631 8.40863 43.1017C6.80424 48.7403 8.28873 53.7044 12.9905 57.1848C15.5291 59.064 18.2395 60.7104 20.8611 62.4785C21.8492 63.1449 22.8764 63.9011 22.2989 65.2904C21.7522 66.6056 20.548 66.6358 19.3261 66.4435C9.26651 64.8605 -1.08789 50.8924 0.0922008 42.3965C2.79296 22.9527 14.6093 12.9635 31.4573 6.76396C54.3096 -1.64493 77.7984 -0.947576 101.422 2.08891C115.585 3.90939 129.576 6.99541 143.894 7.7248C147.114 7.88884 149.754 7.19731 152.102 5.01601C154.082 3.17743 156.459 1.95384 159.042 1.18366C162.254 0.226305 165.239 0.875429 166.926 3.77407C168.651 6.73812 166.368 8.73934 164.214 10.4376C158.727 14.762 153.06 18.8612 149.063 24.7877C145.607 29.9127 142.675 35.0459 145.728 41.445C146.293 42.6287 146.123 43.7434 144.939 44.4942C143.723 45.2651 142.71 44.6264 141.764 43.894C139.577 42.2015 139.087 39.7392 138.943 37.2134C138.55 30.3263 139.109 23.5837 142.275 17.2766C142.781 16.2701 143.609 15.3267 143.148 13.5558C140.605 12.3338 137.518 12.8605 134.674 12.7238C113.922 11.726 93.2653 8.15653 72.4509 9.39491C54.6767 10.4524 37.5972 14.5973 22.1684 24.8834Z" fill="#E9644E" stroke="#E9644E" stroke-width="6"/>
</svg>