<svg width="1166" height="320" viewBox="0 0 1166 320" fill="none" xmlns="http://www.w3.org/2000/svg">
<path d="M904.007 171.703C898.166 181.847 889.769 189.287 881.499 196.736C873.845 203.631 866.247 210.666 857.318 216.017C854.584 217.656 853.93 220.875 852.647 223.546C845.144 239.163 837.722 254.842 828.183 269.345C822.454 278.055 815.433 285.631 805.6 289.955C802.07 291.507 798.383 292.629 794.467 292.177C781.124 290.639 775.903 281.016 781.953 268.884C787.83 257.098 797.421 248.568 807.486 240.516C817.253 232.703 827.512 225.566 837.869 218.568C839.391 217.539 841.003 216.638 841.882 214.918C850.598 197.89 858.817 180.639 864.737 162.127C862.864 164.474 860.985 166.816 859.118 169.168C849.606 181.151 841.056 194.034 828.031 202.755C822.075 206.744 815.789 209.642 808.339 207.58C800.846 205.506 797.52 201.46 796.887 193.72C796.779 192.404 796.752 191.082 796.626 188.523C794.047 191.027 792.112 192.903 790.181 194.781C783.338 201.432 776.256 207.708 766.825 210.548C758.114 213.172 750.425 210.083 749.029 202.821C747.923 197.07 748.067 191.237 750.752 185.709C754.954 177.054 760.948 169.754 767.465 162.794C769.618 160.495 771.591 157.991 773.378 155.397C775.532 152.272 774.612 149.775 771.295 148.04C767.49 146.051 763.258 146.042 759.17 145.463C756.55 145.093 755.542 147.487 754.3 149.191C746.451 159.956 738.749 170.831 730.776 181.504C727.295 186.164 723.385 190.502 718.793 194.191C709.885 201.351 704.806 201.811 694.024 195.141C692.208 197.443 690.419 200.343 688.032 202.616C681.969 208.39 674.419 211.398 666.194 210.899C653.825 210.147 646.921 199.505 648.922 185.958C650.266 176.857 653.613 168.63 658.865 161.167C665.192 152.174 672.785 144.637 683.142 140.235C687.164 138.526 691.255 138.25 695.382 138.971C701.325 140.009 704.951 145.412 703.56 150.647C703.208 151.971 702.789 153.309 701.108 153.356C699.64 153.397 699.29 152.216 698.857 151.089C696.997 146.252 695.244 145.474 690.253 147.781C683.414 150.942 678.501 156.448 673.839 162.124C666.542 171.008 660.756 180.662 659.992 192.511C659.7 197.044 659.63 201.928 664.122 204.611C668.856 207.438 673.476 205.451 677.737 202.846C682.184 200.127 686.002 196.713 689.147 192.504C690.698 190.429 691.932 188.552 691.309 185.714C690.819 183.48 691.664 181.086 693.886 180.233C700.826 177.568 700.503 171.428 701.031 165.779C701.21 163.862 700.425 161.853 700.061 159.89C699.512 156.916 700.865 154.973 703.567 154.117C706.273 153.26 708.586 154.196 709.893 156.746C711.965 160.785 712.108 165.028 710.865 169.383C709.244 175.063 706.513 180.182 703.189 185.012C701.603 187.318 700.222 189.696 702.573 192.213C704.748 194.542 707.478 194.006 709.98 192.892C715.884 190.262 720.635 186.01 724.735 181.169C732.93 171.497 740.375 161.262 746.642 150.203C748.039 147.737 749.137 145.728 746.119 143.379C743.787 141.564 744.526 138.672 745.855 136.483C750.915 128.145 757.798 121.787 766.949 118.127C768.487 117.512 770.365 117.086 771.589 118.617C772.675 119.974 771.792 121.565 771.077 122.834C768.871 126.749 766.488 130.565 764.245 134.46C763.452 135.837 761.953 136.953 762.563 139.911C768.786 139.911 775.203 139.927 781.621 139.905C785.402 139.892 790.242 138.604 792.161 142.418C794.179 146.43 790.254 149.889 787.805 152.783C780.13 161.854 773.122 171.334 767.882 182.028C765.611 186.661 763.56 191.409 762.738 196.566C762.35 199.001 762.727 201.304 764.807 202.866C766.88 204.423 769.068 203.567 770.89 202.384C782.992 194.522 794.221 185.553 801.812 173.09C807.155 164.318 813.067 156.208 820.893 149.545C824.227 146.708 827.75 144.772 832.263 146.942C837.121 149.276 837.483 153.064 833.324 156.404C822.093 165.426 812.64 175.766 809.157 190.318C808.306 193.876 807.026 197.732 810.645 200.45C814.172 203.097 817.735 201.133 820.964 199.459C827.781 195.925 832.477 189.922 837.513 184.413C848.878 171.98 858.815 158.372 869.248 145.173C873.933 139.247 877.268 138.425 883.919 141.441C887.444 143.04 888.548 144.913 886.737 148.823C879.247 164.991 872.046 181.292 864.769 197.558C864.032 199.206 863.009 200.786 863.069 203.171C865.339 202.718 866.846 201.207 868.442 199.962C879.359 191.439 889.862 182.481 898.683 171.697C901.665 168.051 902.035 168.159 904.007 171.703ZM798.18 258.681C795.811 261.673 793.324 264.581 791.107 267.682C788.936 270.72 787.907 274.25 787.775 277.983C787.556 284.143 791.336 286.842 797.091 284.633C800.403 283.361 803.164 281.212 805.684 278.769C820.015 264.874 826.847 246.653 834.56 228.871C821.73 237.688 809.724 247.351 798.18 258.681Z" fill="black"/>
<path d="M479.317 132.288C466.036 147.781 451.138 161.097 436.096 174.266C430.15 179.472 428.247 194.726 432.715 201.223C434.663 204.056 437.262 204.912 440.545 203.745C444.519 202.332 448.072 200.162 451.346 197.579C459.989 190.762 468.005 183.388 474.77 174.548C486.909 158.686 502.97 147.898 521.415 140.528C527.657 138.034 534.204 138.279 540.653 138.913C546.327 139.471 550.22 143.722 550.629 148.994C550.023 149.05 549.197 149.392 548.836 149.12C541.638 143.68 533.956 145.004 526.506 147.97C506.255 156.033 490.566 169.292 481.013 189.231C480.653 189.981 480.22 190.719 480.005 191.513C479.035 195.1 477.971 199.088 481.124 201.809C484.404 204.638 487.858 202.211 490.684 200.255C502.92 191.785 513.805 181.771 523.886 170.837C528.625 165.697 533.554 160.721 538.568 155.846C542.151 152.363 546.385 152.428 550.258 155.481C552.951 157.603 551.461 159.545 550.192 161.54C544.975 169.747 540.782 178.367 538.889 188.02C538.301 191.013 538.194 193.975 538.309 196.959C538.541 202.948 542.352 205.124 547.859 202.485C552.418 200.3 556.162 196.949 560.039 193.805C571.966 184.132 581.687 172.663 588.444 158.785C589.786 156.029 590.594 153.318 589.874 150.144C589.033 146.433 587.427 143.993 583.217 144.22C582.233 144.273 581.183 144.261 580.6 143.137C580.578 142.852 580.403 142.394 580.551 142.233C585.132 137.262 599.198 137.282 603.46 142.279C606.188 145.477 605.645 149.054 604.477 152.664C601.044 163.27 596.082 173.337 593.376 184.197C592.622 187.224 591.921 190.264 590.97 194.243C594.719 192.205 596.065 189.33 597.849 186.965C611.916 168.323 626.636 150.279 644.793 135.375C649.956 131.138 655.439 127.333 661.989 125.454C666.559 124.144 670.595 125.405 674.007 128.457C675.461 129.757 676.737 131.592 675.658 133.789C674.468 136.212 672.602 134.802 670.883 134.497C664.581 133.381 658.699 134.175 653.261 137.947C636.654 149.466 623.213 164.219 610.601 179.767C602.326 189.967 593.889 200.11 589.427 212.832C588.301 216.042 583.661 216.282 581.098 213.401C578.559 210.546 577.418 207.264 578.563 203.258C581.163 194.171 583.516 185.013 585.203 175.434C580.648 180.462 576.093 185.49 571.538 190.517C567.164 195.343 562.348 199.686 557.141 203.588C553.241 206.511 548.866 208.422 544.239 209.994C533.657 213.588 524.517 207.088 525.346 194.337C525.713 188.691 526.39 183.11 527.493 179.909C523.244 183.718 517.498 188.836 511.789 193.995C506.965 198.353 502.157 202.696 496.182 205.52C484.793 210.903 473.695 206.686 468.794 195.019C468.414 194.115 468.063 193.199 467.453 191.677C463.601 195.076 460.058 198.218 456.498 201.341C451.82 205.444 446.817 208.923 440.563 210.272C427.896 213.004 418.953 206.105 418.876 193.213C418.823 184.236 421.583 175.779 424.834 167.583C436.225 138.867 449.126 110.931 469.093 86.923C475.545 79.1656 482.641 72.028 493.211 70.2734C498.856 69.3364 504.368 70.2453 508.279 74.8769C512.069 79.3661 511.31 84.478 509.071 89.4616C508.05 91.7352 506.989 94.0062 505.743 96.1612C498.295 109.047 489.183 120.725 479.317 132.288ZM451.98 134.4C446.977 143.615 442.409 153.016 438.734 163.445C441.719 162.769 443.047 161.225 444.529 159.927C463.09 143.662 477.89 124.235 491.434 103.794C495.466 97.7104 499.525 91.574 502.058 84.6357C502.88 82.3839 503.439 79.9755 501.218 78.2117C499.143 76.5643 497.002 77.8259 495.157 78.8355C491.19 81.0056 487.863 84.0725 484.667 87.2187C470.975 100.695 461.17 116.895 451.98 134.4Z" fill="black"/>
<path d="M410.486 144.703C412.419 144.927 414.167 145.077 414.298 146.972C414.432 148.91 412.548 149.211 411.201 149.683C400.779 153.334 389.901 154.817 379.032 156.315C372.604 157.201 366.165 158.003 359.732 158.851C357.691 159.121 355.898 159.695 354.828 161.756C349 172.984 342.75 184.008 338.557 196.01C338.174 197.109 337.895 198.248 337.638 199.385C337.328 200.755 337.384 202.116 338.701 202.952C339.893 203.709 340.934 202.89 341.926 202.313C344.89 200.591 346.689 197.696 348.924 195.246C350.366 193.665 351.651 191.929 354.039 192.189C354.357 192.721 354.739 193.11 354.66 193.265C351.055 200.376 346.799 207.078 340.674 212.269C337.101 215.297 332.826 214.5 328.796 212.937C326.115 211.898 325.828 209.671 326.29 207.132C327.853 198.531 331.221 190.556 334.825 182.682C338.058 175.616 341.503 168.647 344.786 161.777C342.755 159.578 340.624 160.569 338.742 160.367C335.315 160 332.504 158.797 331.777 155.092C331.104 151.661 333.463 149.962 336.074 148.557C341.064 145.873 346.023 144.291 351.139 150.342C355.34 140.214 363.434 133.049 363.009 122.01C362.979 121.212 363.194 120.323 363.552 119.604C368.676 109.333 375.962 101.071 386.457 96.1094C392.517 93.2437 398.2 95.1785 403.393 98.7119C405.344 100.04 406.844 101.861 405.757 104.73C396.985 104.473 390.995 109.574 385.731 115.407C377.228 124.828 370.247 135.409 363.772 146.31C363.274 147.149 362.667 148.006 363.335 149.636C378.812 148.074 394.29 144.85 410.486 144.703Z" fill="black"/>
<path d="M315.972 99.9827C309.181 104.69 304.414 110.462 302.213 118.201C300.608 123.84 302.093 128.804 306.794 132.284C309.333 134.163 312.043 135.81 314.665 137.578C315.653 138.244 316.68 139 316.103 140.39C315.556 141.705 314.352 141.735 313.13 141.543C303.07 139.96 292.716 125.992 293.896 117.496C296.597 98.0521 308.413 88.0629 325.261 81.8633C348.113 73.4544 371.602 74.1518 395.226 77.1883C409.389 79.0088 423.38 82.0948 437.698 82.8242C440.918 82.9882 443.558 82.2967 445.906 80.1154C447.886 78.2768 450.262 77.0532 452.846 76.283C456.058 75.3257 459.043 75.9748 460.73 78.8734C462.455 81.8375 460.172 83.8387 458.018 85.537C452.531 89.8613 446.864 93.9606 442.867 99.8871C439.411 105.012 436.479 110.145 439.532 116.544C440.097 117.728 439.926 118.843 438.743 119.594C437.527 120.364 436.514 119.726 435.567 118.993C433.381 117.301 432.891 114.839 432.747 112.313C432.354 105.426 432.913 98.6831 436.079 92.376C436.585 91.3695 437.413 90.4261 436.951 88.6552C434.409 87.4332 431.322 87.9599 428.478 87.8231C407.725 86.8254 387.069 83.2559 366.255 84.4943C348.481 85.5518 331.401 89.6967 315.972 99.9827Z" fill="black"/>
<path d="M471.291 246.163C471.298 254.971 471.201 263.298 471.342 271.622C471.398 274.973 470.322 276.401 466.77 276.4C463.227 276.398 461.456 275.376 461.687 271.574C461.878 268.428 461.726 265.261 461.05 261.885C459.53 265.624 457.879 269.317 456.533 273.118C455.555 275.88 453.626 276.321 451.078 276.36C448.506 276.4 447.085 275.324 446.246 272.97C444.817 268.961 443.237 265.006 441.09 261.164C441.09 264.954 441.039 268.744 441.104 272.532C441.166 276.182 438.798 276.313 436.078 276.34C433.33 276.368 431.642 275.682 431.675 272.471C431.761 263.98 431.627 255.487 431.712 246.996C431.733 244.879 430.811 241.729 434.494 241.776C437.847 241.819 441.991 239.916 443.891 244.92C446.055 250.621 448.467 256.228 452.005 261.99C454.374 256.245 456.839 250.537 459.081 244.743C460.797 240.307 464.502 241.899 467.604 241.647C470.495 241.413 471.398 243.112 471.291 246.163Z" fill="#E9644E"/>
<path d="M550.38 266.52C550.362 268.281 550.261 269.617 550.356 270.939C550.61 274.446 549.83 276.49 545.522 276.439C541.176 276.387 540.7 274.191 540.748 270.763C540.858 262.95 540.714 255.134 540.81 247.321C540.835 245.33 539.907 242.362 542.889 241.942C545.973 241.506 549.593 240.268 551.986 243.861C555.266 248.787 558.558 253.705 561.846 258.626C562.275 258.533 562.704 258.44 563.133 258.347C563.133 254.296 563.201 250.242 563.112 246.193C563.037 242.838 564.402 241.555 567.877 241.549C571.456 241.543 573.092 242.659 573.037 246.358C572.918 254.337 573.05 262.32 572.916 270.298C572.881 272.423 573.918 275.574 570.663 276.07C567.385 276.57 563.767 277.394 561.362 273.435C558.353 268.483 554.929 263.783 550.78 257.634C550.604 261.415 550.496 263.752 550.38 266.52Z" fill="#E9644E"/>
<path d="M380.68 247.091C380.123 242.534 382.173 241.517 385.913 241.533C389.687 241.549 390.306 243.471 390.271 246.568C390.182 254.398 390.343 262.232 390.166 270.059C390.116 272.254 391.558 275.634 387.736 276.128C384.384 276.561 380.843 277.209 378.503 273.212C375.684 268.396 372.354 263.878 369.246 259.232C368.82 259.32 368.395 259.409 367.97 259.497C367.97 263.572 367.834 267.653 368.009 271.72C368.177 275.62 366.192 276.387 362.766 276.408C359.262 276.43 358.025 275.056 358.061 271.693C358.147 263.697 357.979 255.698 358.079 247.702C358.106 245.568 357.082 242.395 360.32 241.902C363.589 241.404 367.287 240.454 369.722 244.373C372.776 249.289 376.112 254.03 379.93 259.752C381.165 254.988 380.449 251.239 380.68 247.091Z" fill="#E9644E"/>
<path d="M524.276 258.988C523.34 268.573 518.365 274.697 510.591 276.27C501.995 278.01 494.426 274.891 490.436 267.964C486.494 261.122 487.398 252.411 492.654 246.606C497.381 241.385 505.678 239.403 512.831 242.043C520.427 244.845 523.894 250.668 524.276 258.988ZM514.613 257.757C514.525 257.27 514.481 256.77 514.344 256.296C513.049 251.795 510.247 248.937 505.376 249.496C500.907 250.008 498.364 252.789 498.074 257.484C497.724 263.129 499.746 266.642 504.306 267.958C509.724 269.522 513.578 266.006 514.613 257.757Z" fill="#E9644E"/>
<path d="M596.127 276.321C592.028 276.738 590.588 275.2 590.662 271.508C590.832 263.045 590.831 254.575 590.668 246.112C590.599 242.546 592.127 241.448 595.443 241.609C599.086 241.785 602.748 241.565 606.396 241.682C616.087 241.995 622.291 248.486 622.392 258.304C622.499 268.772 616.364 275.796 606.568 276.274C603.256 276.436 599.93 276.314 596.127 276.321ZM611.785 264.009C614.282 255.975 611.613 250.277 604.958 249.425C602.01 249.047 600.093 249.746 600.274 253.301C600.434 256.444 600.281 259.602 600.302 262.753C600.342 268.762 601.859 269.764 607.455 267.585C609.05 266.965 610.371 266.037 611.785 264.009Z" fill="#E9644E"/>
<path d="M702.646 252.028C702.809 240.258 701.327 241.791 712.461 241.672C715.446 241.64 718.528 241.484 721.403 242.121C730.237 244.076 735.245 251.835 734.196 261.361C733.278 269.689 726.608 275.877 718.088 276.305C702.679 277.079 702.678 277.079 702.651 261.517C702.645 258.519 702.647 255.521 702.646 252.028ZM722.861 252.767C721.802 251.421 720.421 250.567 718.818 249.988C713.829 248.188 712.161 249.326 712.117 254.672C712.089 257.993 712.218 261.317 712.108 264.633C711.995 268.026 713.466 269.066 716.709 268.396C723.959 266.9 726.338 261.587 722.861 252.767Z" fill="#E9644E"/>
<path d="M1099.27 273.074C1098.34 277.904 1094.89 276.123 1092.4 276.149C1089.49 276.18 1089.75 273.69 1089.74 271.734C1089.7 263.085 1089.78 254.434 1089.68 245.786C1089.64 242.855 1090.71 241.496 1093.74 241.587C1098.23 241.72 1102.73 241.455 1107.21 241.748C1111.64 242.037 1115.32 243.999 1116.73 248.525C1118.16 253.104 1117.82 257.657 1113.68 260.717C1110.87 262.784 1111.29 264.565 1112.78 266.987C1114.41 269.63 1116.21 272.232 1116.89 275.306C1105.85 280.368 1104.82 270.118 1100.26 264.379C1099.11 267.481 1099.44 270.094 1099.27 273.074ZM1101.74 256.624C1104.26 256.709 1106.86 256.812 1107.52 253.551C1107.9 251.712 1107.02 250.251 1105.27 249.703C1103.57 249.174 1101.27 248.602 1100.22 250.14C1098.86 252.116 1098.3 254.689 1101.74 256.624Z" fill="#E9644E"/>
<path d="M936.74 272.212C937.212 273.941 938.279 275.933 935.926 276.076C933.153 276.245 929.912 277.652 927.69 274.476C923.569 268.586 917.196 268.573 912.926 274.372C910.383 277.826 906.964 275.943 903.917 276.003C902.891 274.013 903.855 272.515 904.389 271.014C907.401 262.556 910.644 254.174 913.418 245.64C914.646 241.863 917.085 241.576 920.302 241.58C923.487 241.584 926.009 241.752 927.252 245.541C930.152 254.383 933.451 263.095 936.74 272.212ZM922.895 261.552C922.578 259.296 921.992 257.156 920.259 255.025C918.741 257.46 917.857 259.63 917.861 262.138C919.633 263.005 921.169 263.193 922.895 261.552Z" fill="#E9644E"/>
<path d="M1062.62 260.44C1062.63 255.343 1062.75 250.685 1062.6 246.036C1062.5 242.886 1063.61 241.501 1066.9 241.578C1069.84 241.648 1072.22 241.8 1072.15 245.682C1072.03 251.497 1072.39 257.337 1072 263.128C1071.43 271.587 1065.82 276.642 1057.27 277.019C1049.23 277.373 1043.26 272.616 1042.34 264.169C1041.65 257.924 1041.56 251.528 1042.04 245.264C1042.55 238.705 1047.69 242.652 1051.4 241.487C1051.4 247.073 1051.38 252.013 1051.41 256.953C1051.43 258.778 1051.38 260.631 1051.68 262.419C1052.18 265.421 1053.46 267.868 1057.09 267.763C1061.6 267.632 1062.27 264.38 1062.62 260.44Z" fill="#E9644E"/>
<path d="M337.566 271.391C331.959 277.294 325.521 278.177 318.616 275.426C312.046 272.808 310.599 267.094 310.665 260.696C310.714 256.035 310.811 251.369 310.635 246.714C310.505 243.295 311.343 241.593 315.287 241.526C319.492 241.453 320.411 243.281 320.279 246.931C320.106 251.752 320.254 256.584 320.268 261.411C320.277 264.992 321.398 267.728 325.557 267.791C329.848 267.857 330.757 265.018 330.75 261.46C330.74 256.466 330.921 251.466 330.725 246.481C330.58 242.776 332.044 241.52 335.699 241.553C339.094 241.583 340.518 242.652 340.397 246.163C340.203 251.817 340.3 257.481 340.34 263.141C340.361 266.089 339.445 268.693 337.566 271.391Z" fill="#E9644E"/>
<path d="M1152.51 252.213C1151.39 251.763 1150.54 251.486 1150 250.918C1148.91 249.763 1147.79 248.844 1146.1 249.36C1145.23 249.625 1144.63 250.298 1144.76 251.221C1145.05 253.131 1146.63 253.895 1148.17 254.527C1150.32 255.412 1152.61 255.982 1154.72 256.967C1162.17 260.464 1163.03 269.699 1156.25 274.347C1151.13 277.858 1145.52 277.566 1140.08 275.172C1136.36 273.538 1134.09 270.621 1134.05 265.97C1138.21 265.785 1142.25 263.967 1145.67 268.034C1146.72 269.285 1148.95 269.235 1150.04 267.508C1151.27 265.543 1149.71 264.315 1148.18 263.63C1145.91 262.616 1143.47 261.988 1141.13 261.095C1136.7 259.396 1133.8 256.362 1133.84 251.409C1133.89 246.234 1136.94 243.245 1141.68 241.647C1146.38 240.062 1150.9 240.407 1155.17 242.863C1158.04 244.515 1160.7 247.086 1159.87 250.409C1159.01 253.814 1155.35 251.806 1152.51 252.213Z" fill="#E9644E"/>
<path d="M872.456 268.378C874.703 268.856 876.796 269.059 877.106 266.559C877.345 264.634 875.574 263.803 873.96 263.193C871.474 262.252 868.916 261.464 866.514 260.343C862.507 258.472 860.497 255.265 860.716 250.752C860.927 246.397 863.352 243.716 867.188 242.112C872.872 239.735 878.311 240.336 883.259 243.929C885.619 245.642 887.356 248.08 886.27 251.205C885.7 252.846 878.888 252.716 876.997 251.175C876.493 250.764 876.19 250.108 875.693 249.684C874.264 248.466 872.618 247.939 871.381 249.717C870.056 251.621 871.499 252.89 873.038 253.668C874.807 254.561 876.727 255.159 878.59 255.861C885.643 258.518 888.463 262.701 887.077 268.473C885.812 273.738 879.779 277.442 873.347 276.901C865.655 276.255 861.405 272.622 861.238 266.323C865.149 265.266 868.954 264.629 872.456 268.378Z" fill="#E9644E"/>
<path d="M984.444 249.368C981.685 257.102 978.774 264.388 976.521 271.871C975.233 276.15 972.542 276.384 968.967 276.402C965.495 276.419 963.035 275.975 961.766 272.024C958.624 262.243 955.04 252.603 951.639 242.922C959.121 240.191 961.012 241.02 963.231 247.581C964.972 252.725 966.681 257.881 968.811 264.246C972.085 258.476 973.1 253.28 974.784 248.369C977.319 240.975 978.088 240.497 986.035 242.359C986.602 244.792 985.173 246.812 984.444 249.368Z" fill="#E9644E"/>
<path d="M1015.47 249.338C1012.92 249.394 1012.04 250.52 1012.33 252.574C1012.62 254.59 1014.18 254.645 1015.72 254.682C1017.05 254.715 1018.38 254.75 1019.71 254.753C1022.24 254.759 1023.23 256.109 1023.23 258.534C1023.23 260.932 1022.37 262.357 1019.77 262.297C1018.44 262.267 1017.1 262.356 1015.77 262.33C1013.63 262.289 1012.27 262.997 1012.22 265.431C1012.18 267.792 1013.31 268.743 1015.56 268.701C1017.23 268.671 1018.89 268.789 1020.55 268.734C1023.31 268.643 1024.37 269.937 1024.39 272.663C1024.41 275.585 1022.96 276.384 1020.37 276.338C1015.87 276.258 1011.38 276.236 1006.89 276.336C1004.04 276.4 1002.6 275.435 1002.63 272.336C1002.72 263.353 1002.7 254.369 1002.62 245.386C1002.59 242.558 1003.88 241.562 1006.55 241.608C1011.2 241.689 1015.87 241.764 1020.52 241.593C1023.68 241.476 1024.52 243.038 1024.57 245.813C1024.64 248.878 1022.84 249.385 1020.39 249.306C1018.89 249.258 1017.39 249.315 1015.47 249.338Z" fill="#E9644E"/>
<path d="M771.506 256.507C772.606 260.747 771.275 262.684 767.147 262.321C766.322 262.248 765.484 262.344 764.653 262.327C762.536 262.285 761.099 262.943 761.085 265.403C761.073 267.722 762.192 268.73 764.444 268.709C766.107 268.693 767.772 268.789 769.435 268.769C772.158 268.735 773.301 270.021 773.264 272.754C773.229 275.324 772.056 276.329 769.596 276.306C764.771 276.262 759.945 276.25 755.121 276.321C752.635 276.357 751.527 275.422 751.557 272.797C751.662 263.813 751.667 254.827 751.587 245.843C751.561 242.966 752.495 241.535 755.595 241.632C760.25 241.778 764.912 241.715 769.57 241.657C771.958 241.627 773.301 242.38 773.311 245.061C773.32 247.604 772.737 249.301 769.786 249.256C767.791 249.226 765.794 249.307 763.798 249.366C762.263 249.412 761.264 250.104 761.185 251.749C761.098 253.56 761.955 254.428 763.787 254.689C766.318 255.051 769.18 253.761 771.506 256.507Z" fill="#E9644E"/>
<path d="M640.505 275.478C639.108 265.016 639.889 254.866 639.714 244.73C639.672 242.261 641.15 241.66 643.268 241.672C648.097 241.7 652.926 241.725 657.753 241.647C660.269 241.607 661.33 242.648 661.368 245.201C661.408 247.846 660.587 249.349 657.711 249.266C655.882 249.212 654.049 249.309 652.218 249.333C650.504 249.356 649.317 249.938 649.286 251.909C649.256 253.807 650.25 254.623 652.038 254.672C653.702 254.718 655.368 254.728 657.031 254.802C659.745 254.924 660.152 256.76 660.141 258.97C660.129 261.261 659.016 262.311 656.763 262.287C655.431 262.273 654.099 262.348 652.767 262.333C650.638 262.308 649.256 262.984 649.233 265.445C649.21 267.814 650.342 268.753 652.589 268.708C654.087 268.677 655.588 268.789 657.084 268.734C659.894 268.63 661.405 269.589 661.377 272.744C661.349 275.763 659.769 276.422 657.262 276.316C651.791 276.083 646.289 276.863 640.505 275.478Z" fill="#E9644E"/>
<g clip-path="url(#clip0_2001_172)">
<path d="M221.186 264.498C218.432 263.038 215.538 263.216 212.813 262.746C197.115 260.038 181.396 257.451 165.681 254.843C149.318 252.126 132.945 249.465 116.587 246.715C105.356 244.826 94.1486 242.793 82.9204 240.885C68.8458 238.493 54.7599 236.167 40.6803 233.805C29.6131 231.947 18.5481 230.076 7.48176 228.214C3.59282 227.559 1.65518 223.805 3.31435 219.582C5.49432 214.033 7.88971 208.569 10.2391 203.088C21.2708 177.355 32.272 151.608 43.3802 125.907C48.869 113.208 53.4483 100.13 59.3924 87.6243C60.2102 85.9039 61.1147 84.2249 61.9858 82.5302C64.3724 77.8865 68.3581 76.251 73.316 76.6217C77.3488 76.9233 81.3961 77.1984 85.3915 77.7919C90.4793 78.5477 95.1992 76.662 100.083 76.0436C111.503 74.5976 122.848 74.7153 134.123 76.9776C142.993 78.7573 151.53 81.6031 159.488 86.0028C160.477 86.5494 161.25 86.514 162.237 85.9623C173.557 79.6333 185.762 79.1738 198.165 80.9588C214.059 83.2462 228.752 89.1924 242.93 96.517C246.731 98.4807 250.929 98.4667 254.971 99.0467C263.474 100.267 271.941 101.69 280.397 103.177C284.311 103.865 286.245 107.714 284.844 111.897C282.714 118.257 280.451 124.573 278.158 130.875C268.813 156.557 259.434 182.226 250.076 207.902C249.74 208.822 249.495 209.775 249.153 210.89C252.876 212.275 256.707 212.35 260.402 213.043C264.617 213.834 268.883 214.35 273.115 215.057C275.842 215.513 278.297 216.452 278.952 219.598C279.59 222.657 277.851 224.646 275.711 226.354C266.006 234.099 256.27 241.806 246.554 249.537C240.403 254.432 234.266 259.345 228.014 264.374C225.743 264.498 223.58 264.498 221.186 264.498ZM139.877 154.095C132.024 174.957 124.171 195.819 116.171 217.075C147.975 220.417 178.228 227.475 206.691 240.784C207.611 240.041 207.672 239.165 207.941 238.407C209.607 233.727 211.237 229.033 212.891 224.348C226.431 186.003 239.963 147.657 253.549 109.329C254.176 107.56 253.817 106.667 252.219 105.745C245.619 101.937 238.88 98.413 231.892 95.3824C216.512 88.7118 200.733 83.844 183.674 85.0089C177.244 85.448 171.175 87.1687 165.491 90.2515C164.181 90.9618 163.36 91.9025 162.825 93.3253C155.261 113.476 147.645 133.608 139.877 154.095ZM78.0568 208.301C87.5288 209.823 96.8187 212.123 106.008 214.858C109.223 215.814 109.24 215.811 110.428 212.664C115.197 200.038 119.953 187.408 124.718 174.78C135.094 147.285 145.456 119.784 155.887 92.3099C156.526 90.625 156.27 89.8415 154.66 89.0444C144.109 83.8223 133.043 80.5545 121.296 79.4258C106.751 78.0283 92.6428 79.8088 78.781 84.3094C76.3784 85.0894 75.1601 86.4221 74.2273 88.6332C58.0671 126.937 41.841 165.212 25.6642 203.508C25.0034 205.073 24.0592 206.575 23.9293 208.341C24.8411 208.834 25.6211 208.5 26.413 208.304C34.5775 206.29 42.9103 205.917 51.2584 205.921C60.1073 205.926 68.9029 206.745 78.0568 208.301ZM34.2794 177.211C46.259 148.907 58.3083 120.632 70.1608 92.2747C72.6005 86.4376 74.5125 80.4919 82.4248 80.0665C79.2563 79.411 76.3232 79.2007 73.4255 78.7578C71.3162 78.4353 70.0099 79.1255 68.9671 80.9786C65.9508 86.3382 63.5438 91.9811 61.2528 97.6614C47.0899 132.778 31.7444 167.389 16.851 202.193C14.7329 207.142 12.5833 212.079 10.5305 217.056C9.09445 220.538 10.0819 222.95 13.0668 223.47C22.742 225.156 32.418 226.838 42.1022 228.472C60.5772 231.588 79.0594 234.661 97.5358 237.77C108.685 239.646 119.827 241.57 130.977 243.445C147.5 246.225 164.023 249.001 180.553 251.74C192.523 253.723 204.509 255.607 216.472 257.632C218.299 257.942 219.147 257.523 219.749 255.732C226.274 236.337 233.195 217.083 240.234 197.871C248.441 175.473 256.614 153.062 264.834 130.668C268.021 121.987 271.298 113.34 274.532 104.682C271.858 103.563 254.049 100.983 252.007 101.399C253.348 102.252 254.738 103.005 255.98 103.952C260.18 107.154 260.719 108.944 258.954 113.853C248.36 143.312 237.744 172.763 227.148 202.221C222.13 216.174 217.135 230.136 212.143 244.098C211.587 245.654 211.127 246.96 208.891 246.55C200.126 244.943 191.329 243.505 182.547 241.988C168.801 239.614 155.061 237.205 141.312 234.852C123.093 231.735 104.863 228.687 86.6469 225.554C72.8212 223.177 59.0058 220.738 45.1947 218.277C38.3682 217.06 31.5445 215.815 24.7529 214.42C20.9215 213.633 19.8322 211.473 21.2837 208.014C25.5468 197.854 29.8506 187.712 34.2794 177.211ZM244.316 223.906C242.165 229.919 240.014 235.931 237.863 241.944C238.083 242.077 238.302 242.21 238.521 242.343C248.929 234.032 259.337 225.72 270.019 217.19C269.141 216.837 268.715 216.573 268.258 216.497C262.075 215.474 255.886 214.487 249.703 213.466C248.347 213.242 247.773 213.92 247.382 215.099C246.446 217.927 245.43 220.729 244.316 223.906Z" fill="black"/>
<path d="M182.443 164.859C174.293 163.761 166.334 162.95 158.335 162.556C157.348 162.508 156.367 162.33 155.383 162.209C154.636 162.118 153.766 162.079 153.828 161.036C153.89 159.997 154.756 160.009 155.505 160.067C161.263 160.509 167.034 160.834 172.773 161.458C182.118 162.473 191.444 163.702 200.61 165.856C204.463 166.761 208.264 167.895 212.064 169.007C212.861 169.24 214.114 169.534 213.718 170.743C213.326 171.944 212.248 171.444 211.39 171.15C202.054 167.948 192.403 166.209 182.443 164.859Z" fill="black"/>
<path d="M148.248 176.503C154.535 176.888 160.636 177.248 166.713 177.849C176.082 178.775 185.393 180.154 194.575 182.265C198.194 183.097 201.764 184.159 205.321 185.233C206.214 185.502 207.886 185.664 207.296 187.139C206.731 188.554 205.447 187.557 204.492 187.247C193.437 183.658 182.025 181.91 170.535 180.499C163.56 179.643 156.555 179.187 149.559 178.605C148.378 178.507 146.615 178.707 148.248 176.503Z" fill="black"/>
<path d="M180.412 147.544C174.781 146.791 169.344 146.455 163.902 146.14C162.569 146.063 160.266 146.59 160.357 144.654C160.436 142.978 162.584 143.885 163.736 143.954C181.397 145.006 198.939 146.904 216.007 151.893C216.957 152.171 217.889 152.512 218.823 152.845C219.541 153.101 220.374 153.435 220.067 154.37C219.711 155.45 218.776 155.145 217.969 154.904C215.279 154.103 212.612 153.211 209.898 152.503C200.291 149.999 190.505 148.533 180.412 147.544Z" fill="black"/>
<path d="M182.211 130.79C177.794 130.451 173.602 130.121 169.41 129.795C168.67 129.738 167.92 129.749 167.189 129.635C166.438 129.518 165.629 129.277 165.772 128.282C165.901 127.383 166.731 127.473 167.361 127.507C171.314 127.715 175.278 127.824 179.213 128.223C190.201 129.335 201.167 130.643 211.97 133.034C216.079 133.943 220.153 134.997 224.121 136.415C224.944 136.709 226.111 136.999 225.589 138.219C225.176 139.184 224.184 138.818 223.398 138.545C210.123 133.947 196.301 132.26 182.211 130.79Z" fill="black"/>
<path d="M180.018 197.022C186.782 198.011 193.18 199.613 199.447 201.739C200.224 202.002 201.509 202.236 200.991 203.5C200.507 204.68 199.433 204.069 198.61 203.792C186.323 199.665 173.587 197.912 160.779 196.458C155.032 195.806 149.266 195.487 143.51 194.998C142.578 194.919 141.181 195.213 141.288 193.753C141.39 192.358 142.774 192.688 143.69 192.76C153.726 193.545 163.764 194.334 173.717 195.914C175.753 196.237 177.78 196.614 180.018 197.022Z" fill="black"/>
<path d="M215.001 118.803C205.907 116.856 196.908 115.718 187.869 114.88C183.105 114.439 178.357 113.786 173.557 113.786C172.672 113.786 171.45 113.775 171.495 112.561C171.544 111.246 172.828 111.59 173.657 111.603C181.429 111.718 189.129 112.747 196.829 113.646C206.582 114.784 216.258 116.443 225.719 119.168C227.146 119.579 228.55 120.075 229.962 120.542C230.682 120.78 231.552 121.078 231.341 121.992C231.082 123.119 230.064 122.904 229.297 122.63C225.245 121.186 221.069 120.199 216.905 119.166C216.347 119.027 215.774 118.945 215.001 118.803Z" fill="black"/>
<path d="M50.0089 186.458C46.7838 180.132 43.8962 173.888 45.554 166.663C47.0391 160.19 51.0092 155.327 56.1393 151.48C68.2913 142.367 82.0389 139.448 96.9351 141.629C102.816 142.491 108.325 144.445 113.148 148.034C122.846 155.252 124.912 165.983 118.284 176.029C113.984 182.545 109.189 188.682 102.059 192.466C89.2271 199.276 75.9621 201.079 62.1586 195.826C57.2809 193.97 53.1154 191.006 50.0089 186.458ZM82.5321 143.479C81.8771 143.569 81.2207 143.649 80.5675 143.751C69.8099 145.417 60.1564 149.375 52.8242 157.756C48.4864 162.715 46.0174 168.477 47.9614 175.165C50.231 182.974 56.2317 187.128 63.4609 189.679C72.7771 192.967 82.2869 192.94 91.7813 190.551C100.19 188.435 107.691 184.623 113.745 178.191C122.924 168.439 121.49 155.923 110.201 148.791C101.84 143.508 92.5462 142.67 82.5321 143.479Z" fill="black"/>
<path d="M90.0345 117.765C89.8557 118.039 89.7027 118.231 89.7489 118.333C90.6653 120.365 90.9254 122.311 88.9714 123.917C86.6114 125.856 83.9131 126.616 80.8848 126.092C79.6422 125.878 79.5419 125.05 79.8492 124.051C80.92 120.569 81.5554 116.99 82.1848 113.414C82.388 112.258 82.9441 111.741 84.0714 111.49C85.2071 111.236 86.3269 111.035 87.4879 111.038C89.2966 111.042 91.0581 111.307 91.8632 113.174C92.699 115.112 91.5923 116.484 90.0345 117.765ZM88.0957 114.627C87.5317 113.807 86.7252 113.646 86.0379 114.258C85.3423 114.878 85.2504 115.77 85.8223 116.665C86.9801 116.565 87.8449 116.146 88.0957 114.627ZM86.2374 122.314C86.8678 121.632 86.8233 121.007 86.0097 120.543C85.4773 120.239 84.9145 120.268 84.5039 120.804C84.0885 121.345 83.8509 122.011 84.2639 122.586C84.7774 123.301 85.4046 122.801 86.2374 122.314Z" fill="black"/>
<path d="M82.3864 104.143C80.4746 103.312 81.3113 104.995 81.0095 105.566C80.4368 106.651 80.6349 108.346 78.6045 108.045C77.4466 107.873 76.7517 107.541 77.0937 106.148C77.9994 102.46 78.8524 98.7578 79.6924 95.0533C80.2087 92.7766 82.0831 92.8544 83.7718 92.6378C85.9292 92.3612 88.1836 92.0319 89.3033 94.5861C90.1611 96.5429 89.2031 98.6991 86.8527 100.541C86.344 100.939 85.6735 101.167 85.4056 101.94C85.641 103.211 86.5009 104.256 87.153 105.379C87.8209 106.53 87.4918 107.167 86.4579 107.791C85.3216 108.477 84.659 108.142 84.1014 107.04C83.6175 106.085 83.0139 105.19 82.3864 104.143ZM83.5998 95.7723C82.8902 96.8761 82.4524 98.0244 82.8971 99.5064C84.5822 98.863 86.0575 98.1113 85.9562 96.2666C85.8978 95.2041 84.7237 95.4779 83.5998 95.7723Z" fill="black"/>
<path d="M91.7763 118.288C92.5419 115.342 93.9451 113.043 96.3702 111.51C99.653 109.433 102.766 111.124 102.945 114.973C103.1 118.289 102.034 121.168 99.9932 123.708C98.2153 125.92 95.5333 126.853 93.6814 125.992C91.7364 125.087 90.9002 122.734 91.4536 119.7C91.5279 119.293 91.6363 118.892 91.7763 118.288ZM97.8212 114.022C95.6049 115.881 95.1447 118.452 94.99 121.129C94.9471 121.869 94.9774 122.715 95.9234 122.915C96.8064 123.102 97.2697 122.407 97.6598 121.779C98.7743 119.985 99.3523 118.026 99.2793 115.901C99.2511 115.078 99.2765 114.189 97.8212 114.022Z" fill="black"/>
<path d="M121.845 113.365C124.535 109.789 124.535 109.789 127.106 111.387C126.596 112.985 125.296 114.061 124.278 115.297C121.672 118.461 121.599 118.461 123.864 121.824C124.539 122.827 124.661 123.496 123.66 124.334C122.469 125.332 121.515 125.472 120.659 123.992C120.053 122.945 119.421 121.913 118.57 120.487C118.262 121.844 117.965 122.767 117.858 123.712C117.688 125.21 116.739 125.383 115.558 125.222C114.149 125.031 114.183 124.075 114.415 123C115.146 119.611 115.858 116.217 116.583 112.826C116.903 111.332 117.609 110.373 119.336 110.906C121.163 111.47 120.174 112.7 119.999 113.74C119.934 114.13 119.896 114.524 119.836 114.996C120.959 114.945 121.172 114.004 121.845 113.365Z" fill="black"/>
<path d="M108.837 110.726C112.975 110.12 114.427 111.336 114.37 115.309C114.308 119.615 112.979 123.342 108.92 125.458C105.855 127.057 102.868 125.374 102.868 121.842C102.866 117.26 104.244 113.163 108.837 110.726ZM110.074 119.724C110.534 118.309 111 116.893 111.025 115.386C111.037 114.694 110.865 114.017 110.157 113.744C109.4 113.452 108.894 113.987 108.504 114.525C107.57 115.815 107.013 117.281 106.713 118.841C106.451 120.202 105.778 122.086 107.251 122.654C108.928 123.302 109.254 121.207 110.074 119.724Z" fill="black"/>
<path d="M101.839 94.8768C102.576 94.1952 103.131 93.5394 103.83 93.1331C105.397 92.2224 107.179 91.5947 108.621 93.1139C110.017 94.5842 109.488 96.5647 109.158 98.33C108.98 99.2749 108.021 99.0592 107.279 99.0061C106.428 98.9452 105.833 98.6547 105.918 97.6552C105.967 97.0941 106.24 96.518 105.827 95.9815C103.938 96.6664 101.344 101.758 102.12 103.522C102.921 105.342 103.986 104.451 104.7 103.442C105.699 102.03 106.765 101.349 108.405 102.33C107.922 105.438 105.582 107.677 102.697 107.83C100.143 107.966 98.2585 105.959 98.4213 103.173C98.6013 100.094 99.8276 97.4122 101.839 94.8768Z" fill="black"/>
<path d="M115.783 106.654C116.104 102.489 117.297 98.6832 118.061 94.7905C118.422 92.9491 119.463 92.1291 121.211 91.8518C123.206 91.5352 125.076 91.6744 126.4 93.3732C127.513 94.8025 127.542 96.4447 126.732 98.0663C125.789 99.9548 124.16 101.152 122.273 101.82C120.499 102.448 119.548 103.483 119.348 105.325C119.076 107.829 117.664 107.81 115.783 106.654ZM123.161 97.5173C123.598 96.438 123.758 95.4673 122.192 95.0051C121.397 96.2569 120.849 97.4437 121.052 98.8822C122.104 99.0389 122.507 98.3646 123.161 97.5173Z" fill="black"/>
<path d="M94.582 96.8459C94.4452 97.5528 93.9853 98.0695 94.3832 98.6404C95.499 99.2254 97.5874 97.6526 97.8067 99.9239C98.0222 102.154 95.9912 101.212 94.8934 101.512C93.7239 101.831 92.8056 102.391 93.0837 103.719C93.3743 105.108 94.4764 104.438 95.3142 104.359C96.1166 104.284 97.0653 103.97 97.3163 105.158C97.5416 106.225 96.9895 106.931 95.9909 107.221C95.2007 107.45 94.3805 107.595 93.5644 107.713C89.3851 108.319 88.5348 107.435 89.4127 103.33C89.932 100.902 90.6246 98.5081 91.0753 96.0686C91.4477 94.0532 92.4272 92.987 94.5347 92.9867C95.687 92.9865 96.8379 92.7792 97.992 92.7353C98.8499 92.7027 99.7723 92.8017 99.7121 93.9785C99.6629 94.9384 99.2568 95.6946 98.1266 95.8912C96.9575 96.0945 95.5906 95.4842 94.582 96.8459Z" fill="black"/>
<path d="M128.748 94.0321C129.854 92.6561 135.088 91.3821 136.326 91.9956C136.845 92.2526 137.073 92.6425 136.948 93.1901C136.784 93.9054 136.702 94.7232 135.771 94.8906C135.287 94.9775 134.78 95.031 134.294 94.9866C132.252 94.8006 131.409 95.7329 131.616 97.7895C131.866 97.8408 132.093 97.918 132.324 97.9295C133.392 97.9828 134.872 97.3 135.103 99.0556C135.349 100.931 133.823 100.857 132.592 100.923C130.793 101.02 130.175 101.98 130.347 103.638C131.288 104.111 132.069 103.549 132.876 103.584C133.533 103.613 134.294 103.433 134.492 104.311C134.695 105.209 134.394 105.946 133.475 106.319C131.41 107.157 129.249 107.089 127.123 106.797C125.846 106.622 126.133 105.541 126.305 104.615C126.953 101.117 127.595 97.6196 128.748 94.0321Z" fill="black"/>
<path d="M110.85 101.005C111.349 98.7036 111.856 96.6178 112.231 94.5085C112.642 92.1936 113.923 91.7472 116.195 92.5809C115.517 95.8985 114.836 99.1726 114.183 102.452C113.974 103.503 113.847 104.57 113.67 105.627C113.437 107.02 112.627 107.583 111.223 107.382C109.706 107.164 109.995 106.058 110.117 105.108C110.283 103.801 110.566 102.509 110.85 101.005Z" fill="black"/>
<path d="M51.8054 173.672C51.2156 170.043 52.4995 166.956 54.201 164.279C59.5889 155.803 66.2082 149.007 77.3615 149.392C80.0051 149.484 82.656 149.347 85.3019 149.398C86.6757 149.425 87.8163 149.047 89.0175 148.342C93.6726 145.609 98.5725 144.79 103.723 146.94C105.87 147.836 107.588 149.219 108.441 151.434C108.945 152.743 110.051 153.513 110.854 154.549C113.828 158.388 114.881 162.869 115.029 167.57C115.125 170.635 114.025 173.332 111.907 175.7C104.34 184.155 94.5524 187.866 83.6335 188.982C75.246 189.838 67.1101 188.667 59.7084 184.325C55.7001 181.973 52.1875 179.083 51.8054 173.672ZM111.127 168.536C112.842 164.152 112.328 160.157 109.182 156.587C108.987 156.676 108.891 156.691 108.845 156.747C108.691 156.937 108.522 157.125 108.415 157.342C105.544 163.176 100.412 165.326 94.3914 165.463C90.1121 165.561 86.1878 164.294 84.0279 159.995C82.6041 157.162 83.6169 154.538 84.9927 151.637C80.3916 151.634 76.1029 151.219 71.8947 152.096C66.0287 153.319 62.3323 157.743 58.4611 161.812C57.2055 163.132 56.2969 164.723 55.7091 166.491C53.7114 172.501 58.0272 177.75 64.2345 176.804C65.1282 176.667 66.0298 176.475 66.8775 176.169C68.4202 175.612 69.4088 175.945 70.4214 177.374C72.8978 180.869 76.3591 182.13 80.6116 181.339C84.3934 180.634 87.2637 178.521 89.7465 175.747C90.77 174.604 91.6989 173.984 93.3674 174.843C100.487 178.509 107.255 176.169 111.127 168.536ZM98.3449 150.641C95.5574 150.297 93.4036 151.55 91.5599 153.446C90.6578 154.374 90.1939 155.569 90.6869 156.851C91.2175 158.23 92.2149 159.188 93.761 159.377C95.6834 159.612 97.5375 159.368 99.2445 158.405C100.892 157.475 102.272 156.268 102.087 154.17C101.912 152.197 100.562 151.177 98.3449 150.641Z" fill="black"/>
<path d="M79.083 174.805C83.366 174.372 86.7292 172.223 90.1396 170.185C91.1898 169.557 92.2542 168.72 93.5366 170.487C88.753 171.999 85.5961 176.497 80.3124 176.713C78.4044 176.791 78.1363 176.431 79.083 174.805Z" fill="black"/>
<path d="M64.1609 160.588C64.9947 160.464 65.475 160.74 65.658 161.376C66.062 162.78 62.9854 167.374 61.5342 167.382C59.9541 167.39 59.8792 166.263 60.2856 165.113C60.9676 163.184 62.2055 161.674 64.1609 160.588Z" fill="black"/>
<path d="M77.0824 166.877C76.1509 168.692 75.2617 170.354 74.3533 172.005C74.0042 172.639 73.6798 173.507 72.7411 173.101C71.8505 172.716 72.131 171.844 72.3266 171.15C72.8485 169.297 73.782 167.651 75.2022 166.355C75.8567 165.758 76.7621 165.129 77.0824 166.877Z" fill="black"/>
<path d="M74.3345 155.273C75.3438 154.706 76.1658 154.019 77.4379 154.935C76.3306 156.97 74.6254 157.853 72.2171 158.185C72.1769 156.487 73.3125 156.026 74.3345 155.273Z" fill="black"/>
<path d="M105.314 171.026C103.902 171.265 101.853 168.94 102.336 167.816C102.747 166.856 103.523 167.009 104.153 167.53C105.176 168.377 105.543 169.532 105.314 171.026Z" fill="black"/>
</g>
<defs>
<clipPath id="clip0_2001_172">
<rect width="286" height="207" fill="white" transform="translate(0 57)"/>
</clipPath>
</defs>
</svg>
