<svg width="1173" height="320" viewBox="0 0 1173 320" fill="none" xmlns="http://www.w3.org/2000/svg">
<path d="M486.317 132.288C473.036 147.781 458.138 161.097 443.096 174.266C437.15 179.472 435.247 194.726 439.714 201.223C441.663 204.056 444.262 204.912 447.545 203.745C451.519 202.332 455.072 200.162 458.346 197.579C466.989 190.762 475.005 183.388 481.77 174.548C493.909 158.686 509.97 147.898 528.415 140.528C534.657 138.034 541.204 138.279 547.653 138.913C553.327 139.471 557.22 143.722 557.629 148.994C557.023 149.05 556.197 149.392 555.836 149.12C548.638 143.68 540.956 145.004 533.506 147.97C513.255 156.033 497.566 169.292 488.013 189.231C487.653 189.981 487.22 190.719 487.005 191.513C486.035 195.1 484.971 199.088 488.124 201.809C491.404 204.638 494.858 202.211 497.684 200.255C509.92 191.785 520.805 181.771 530.886 170.837C535.625 165.697 540.554 160.721 545.568 155.846C549.151 152.363 553.385 152.428 557.258 155.481C559.951 157.603 558.461 159.545 557.192 161.54C551.975 169.747 547.782 178.367 545.889 188.02C545.301 191.013 545.194 193.975 545.309 196.959C545.541 202.948 549.352 205.124 554.859 202.485C559.418 200.3 563.162 196.949 567.039 193.805C578.966 184.132 588.687 172.663 595.444 158.785C596.786 156.029 597.594 153.318 596.874 150.144C596.033 146.433 594.427 143.993 590.217 144.22C589.233 144.273 588.183 144.261 587.6 143.137C587.578 142.852 587.403 142.394 587.551 142.233C592.132 137.262 606.198 137.282 610.46 142.279C613.187 145.477 612.645 149.054 611.477 152.664C608.044 163.27 603.082 173.337 600.376 184.197C599.622 187.224 598.921 190.264 597.97 194.243C601.719 192.205 603.065 189.33 604.849 186.965C618.916 168.323 633.636 150.279 651.793 135.375C656.956 131.138 662.438 127.333 668.989 125.454C673.559 124.144 677.595 125.405 681.007 128.457C682.461 129.757 683.737 131.592 682.658 133.789C681.468 136.212 679.602 134.802 677.883 134.497C671.581 133.381 665.699 134.175 660.261 137.947C643.653 149.466 630.213 164.219 617.601 179.767C609.326 189.967 600.889 200.11 596.427 212.832C595.301 216.042 590.661 216.282 588.098 213.401C585.559 210.546 584.418 207.264 585.563 203.258C588.163 194.171 590.516 185.013 592.203 175.434C587.648 180.462 583.093 185.49 578.537 190.517C574.164 195.343 569.348 199.686 564.141 203.588C560.241 206.511 555.865 208.422 551.239 209.994C540.657 213.588 531.517 207.088 532.346 194.337C532.713 188.691 533.39 183.11 534.493 179.909C530.243 183.718 524.498 188.836 518.789 193.995C513.965 198.353 509.157 202.696 503.182 205.52C491.793 210.903 480.695 206.686 475.794 195.019C475.414 194.115 475.063 193.199 474.453 191.677C470.601 195.076 467.058 198.218 463.498 201.341C458.82 205.444 453.817 208.923 447.563 210.272C434.896 213.004 425.953 206.105 425.876 193.213C425.823 184.236 428.583 175.779 431.834 167.583C443.225 138.867 456.126 110.931 476.093 86.923C482.545 79.1656 489.641 72.028 500.211 70.2734C505.856 69.3364 511.368 70.2453 515.279 74.8769C519.069 79.3661 518.31 84.478 516.071 89.4616C515.05 91.7352 513.989 94.0062 512.743 96.1612C505.295 109.047 496.183 120.725 486.317 132.288ZM458.98 134.4C453.977 143.615 449.409 153.016 445.734 163.445C448.719 162.769 450.047 161.225 451.529 159.927C470.09 143.662 484.89 124.235 498.434 103.794C502.466 97.7104 506.525 91.574 509.058 84.6357C509.88 82.3839 510.439 79.9755 508.218 78.2117C506.143 76.5643 504.002 77.8259 502.157 78.8355C498.19 81.0056 494.863 84.0725 491.667 87.2187C477.975 100.695 468.17 116.895 458.98 134.4Z" fill="black"/>
<path d="M911.007 171.703C905.166 181.847 896.769 189.287 888.499 196.736C880.845 203.631 873.248 210.666 864.318 216.017C861.584 217.656 860.93 220.875 859.647 223.546C852.144 239.163 844.722 254.842 835.183 269.345C829.454 278.055 822.433 285.631 812.6 289.955C809.07 291.507 805.383 292.629 801.467 292.177C788.124 290.639 782.903 281.016 788.953 268.884C794.83 257.098 804.421 248.568 814.486 240.516C824.253 232.703 834.512 225.566 844.869 218.568C846.391 217.539 848.003 216.638 848.882 214.918C857.598 197.89 865.817 180.639 871.737 162.127C869.864 164.474 867.985 166.816 866.118 169.168C856.606 181.151 848.056 194.034 835.031 202.755C829.075 206.744 822.789 209.642 815.339 207.58C807.846 205.506 804.52 201.46 803.887 193.72C803.779 192.404 803.752 191.082 803.626 188.523C801.047 191.027 799.112 192.903 797.181 194.781C790.338 201.432 783.256 207.708 773.825 210.548C765.114 213.172 757.425 210.083 756.029 202.821C754.923 197.07 755.067 191.237 757.752 185.709C761.954 177.054 767.948 169.754 774.465 162.794C776.618 160.495 778.591 157.991 780.378 155.397C782.532 152.272 781.612 149.775 778.295 148.04C774.49 146.051 770.258 146.042 766.171 145.463C763.55 145.093 762.542 147.487 761.3 149.191C753.451 159.956 745.749 170.831 737.776 181.504C734.295 186.164 730.385 190.502 725.793 194.191C716.885 201.351 711.807 201.811 701.024 195.141C699.209 197.443 697.419 200.343 695.032 202.616C688.969 208.39 681.419 211.398 673.194 210.899C660.825 210.147 653.921 199.505 655.922 185.958C657.266 176.857 660.613 168.63 665.865 161.167C672.192 152.174 679.785 144.637 690.142 140.235C694.164 138.526 698.255 138.25 702.382 138.971C708.325 140.009 711.951 145.412 710.56 150.647C710.208 151.971 709.789 153.309 708.108 153.356C706.64 153.397 706.291 152.216 705.857 151.089C703.997 146.252 702.244 145.474 697.253 147.781C690.414 150.942 685.501 156.448 680.839 162.124C673.542 171.008 667.756 180.662 666.992 192.511C666.7 197.044 666.63 201.928 671.122 204.611C675.856 207.438 680.476 205.451 684.737 202.846C689.184 200.127 693.002 196.713 696.147 192.504C697.698 190.429 698.932 188.552 698.309 185.714C697.819 183.48 698.664 181.086 700.886 180.233C707.826 177.568 707.503 171.428 708.031 165.779C708.21 163.862 707.425 161.853 707.061 159.89C706.512 156.916 707.865 154.973 710.567 154.117C713.273 153.26 715.586 154.196 716.893 156.746C718.965 160.785 719.108 165.028 717.865 169.383C716.244 175.063 713.513 180.182 710.19 185.012C708.603 187.318 707.222 189.696 709.573 192.213C711.748 194.542 714.478 194.006 716.98 192.892C722.884 190.262 727.635 186.01 731.735 181.169C739.93 171.497 747.375 161.262 753.642 150.203C755.04 147.737 756.137 145.728 753.119 143.379C750.787 141.564 751.526 138.672 752.855 136.483C757.915 128.145 764.798 121.787 773.949 118.127C775.487 117.512 777.365 117.086 778.589 118.617C779.675 119.974 778.792 121.565 778.077 122.834C775.871 126.749 773.488 130.565 771.245 134.46C770.452 135.837 768.953 136.953 769.563 139.911C775.786 139.911 782.203 139.927 788.621 139.905C792.402 139.892 797.243 138.604 799.161 142.418C801.179 146.43 797.254 149.889 794.805 152.783C787.13 161.854 780.122 171.334 774.882 182.028C772.612 186.661 770.56 191.409 769.738 196.566C769.35 199.001 769.727 201.304 771.807 202.866C773.88 204.423 776.068 203.567 777.89 202.384C789.992 194.522 801.221 185.553 808.812 173.09C814.155 164.318 820.067 156.208 827.893 149.545C831.227 146.708 834.75 144.772 839.263 146.942C844.121 149.276 844.483 153.064 840.324 156.404C829.093 165.426 819.64 175.766 816.158 190.318C815.306 193.876 814.026 197.732 817.645 200.45C821.172 203.097 824.735 201.133 827.964 199.459C834.781 195.925 839.477 189.922 844.513 184.413C855.878 171.98 865.815 158.372 876.248 145.173C880.933 139.247 884.268 138.425 890.919 141.441C894.444 143.04 895.548 144.913 893.737 148.823C886.247 164.991 879.046 181.292 871.769 197.558C871.032 199.206 870.009 200.786 870.069 203.171C872.339 202.718 873.846 201.207 875.442 199.962C886.359 191.439 896.862 182.481 905.683 171.697C908.665 168.051 909.035 168.159 911.007 171.703ZM805.18 258.681C802.811 261.673 800.324 264.581 798.107 267.682C795.936 270.72 794.907 274.25 794.775 277.983C794.556 284.143 798.336 286.842 804.091 284.633C807.403 283.361 810.164 281.212 812.684 278.769C827.015 264.874 833.847 246.653 841.561 228.871C828.73 237.688 816.724 247.351 805.18 258.681Z" fill="black"/>
<path d="M417.486 144.703C419.419 144.927 421.167 145.077 421.298 146.972C421.432 148.91 419.548 149.211 418.201 149.683C407.779 153.334 396.901 154.817 386.032 156.315C379.604 157.201 373.165 158.003 366.732 158.851C364.691 159.121 362.898 159.695 361.828 161.756C356 172.984 349.75 184.008 345.557 196.01C345.174 197.109 344.895 198.248 344.638 199.385C344.328 200.755 344.384 202.116 345.701 202.952C346.893 203.709 347.934 202.89 348.926 202.313C351.89 200.591 353.689 197.696 355.924 195.246C357.366 193.665 358.651 191.929 361.039 192.189C361.357 192.721 361.739 193.11 361.66 193.265C358.055 200.376 353.799 207.078 347.674 212.269C344.101 215.297 339.826 214.5 335.796 212.937C333.115 211.898 332.828 209.671 333.29 207.132C334.853 198.531 338.221 190.556 341.825 182.682C345.058 175.616 348.503 168.647 351.786 161.777C349.755 159.578 347.624 160.569 345.742 160.367C342.315 160 339.504 158.797 338.777 155.092C338.105 151.661 340.463 149.962 343.074 148.557C348.064 145.873 353.023 144.291 358.139 150.342C362.34 140.214 370.434 133.049 370.009 122.01C369.979 121.212 370.194 120.323 370.552 119.604C375.676 109.333 382.962 101.071 393.457 96.1094C399.517 93.2437 405.2 95.1785 410.393 98.7119C412.344 100.04 413.844 101.861 412.757 104.73C403.985 104.473 397.995 109.574 392.731 115.407C384.228 124.828 377.247 135.409 370.772 146.31C370.274 147.149 369.667 148.006 370.335 149.636C385.812 148.074 401.29 144.85 417.486 144.703Z" fill="black"/>
<path d="M322.972 99.9827C316.181 104.69 311.414 110.462 309.213 118.201C307.608 123.84 309.093 128.804 313.794 132.284C316.333 134.163 319.043 135.81 321.665 137.578C322.653 138.244 323.68 139 323.103 140.39C322.556 141.705 321.352 141.735 320.13 141.543C310.07 139.96 299.716 125.992 300.896 117.496C303.597 98.0521 315.413 88.0629 332.261 81.8633C355.113 73.4544 378.602 74.1518 402.226 77.1883C416.389 79.0088 430.38 82.0948 444.698 82.8242C447.918 82.9882 450.558 82.2967 452.906 80.1154C454.886 78.2768 457.262 77.0532 459.846 76.283C463.058 75.3257 466.043 75.9748 467.73 78.8734C469.455 81.8375 467.172 83.8387 465.018 85.537C459.531 89.8613 453.864 93.9606 449.867 99.8871C446.411 105.012 443.479 110.145 446.532 116.544C447.097 117.728 446.926 118.843 445.743 119.594C444.527 120.364 443.514 119.726 442.567 118.993C440.381 117.301 439.891 114.839 439.747 112.313C439.354 105.426 439.913 98.6831 443.079 92.376C443.585 91.3695 444.413 90.4261 443.951 88.6552C441.409 87.4332 438.322 87.9599 435.478 87.8231C414.725 86.8254 394.069 83.2559 373.255 84.4943C355.481 85.5518 338.401 89.6967 322.972 99.9827Z" fill="black"/>
<path d="M855 223C852.049 229.829 848.952 236.755 845.445 243.465C839.604 254.644 834.427 266.326 825.583 275.561C821.347 279.986 816.213 283.546 811.575 287.749C804.607 288 797.549 288 790.161 288C783.102 281.393 782.336 276.713 786.702 268.02C791.642 258.185 799.007 250.342 807.501 243.601C816.207 236.692 825.219 230.168 834.149 223.238C841.024 223 847.847 223 855 223ZM803.688 255.627C798.561 260.676 793.573 265.887 791.724 273.114C790.754 276.903 790.33 281.077 793.88 283.859C797.348 286.578 800.858 284.611 803.996 282.737C811.549 278.227 817.13 271.597 821.331 264.114C827.459 253.199 832.802 241.838 838.446 230.651C839.153 229.251 839.654 227.748 840.251 226.293C827.174 234.933 815.066 244.435 803.688 255.627Z" fill="#050505"/>
<path d="M630.056 243.116C631.437 250.069 632.779 256.73 634.121 263.391C634.304 263.377 634.486 263.363 634.668 263.349C636.252 256.962 638.011 250.611 639.334 244.171C639.873 241.549 640.978 240.799 643.431 241.043C645.223 241.222 647.048 241.078 649.063 241.078C650.767 248.204 652.424 255.138 654.081 262.072C654.408 262.116 654.734 262.16 655.06 262.205C656.53 255.218 658.001 248.232 659.479 241.208C662.326 241.208 664.921 241.208 668 241.208C667.458 243.359 666.984 245.289 666.485 247.213C664.403 255.252 662.234 263.27 660.282 271.341C659.779 273.421 658.896 274.007 656.822 274C649.774 273.975 649.765 274.061 648.099 267.216C647.023 262.798 645.975 258.373 644.259 253.79C642.536 260.458 640.813 267.126 639.079 273.835C635.785 273.835 632.728 273.835 629.313 273.835C626.588 263.101 623.855 252.338 621 241.092C623.675 241.092 626.027 240.977 628.354 241.171C628.95 241.221 629.465 242.247 630.056 243.116Z" fill="#E45A45"/>
<path d="M572.697 242.002C582.862 242.594 589.13 249.364 588.998 259.257C588.869 268.925 582.079 275.785 572.376 275.961C567.983 276.04 563.587 275.974 559 275.974C559 264.632 559 253.606 559 242C563.403 242 567.886 242 572.697 242.002ZM569.682 249.083C568.804 249.542 567.176 249.979 567.162 250.463C566.988 256.52 567.048 262.584 567.048 268.579C575.839 269.435 580.27 266.415 580.58 259.779C580.905 252.794 577.457 249.197 569.682 249.083Z" fill="#E45A44"/>
<path d="M376.623 242C379.14 242.207 381.396 242.127 383.477 242.681C387.677 243.799 390.191 246.614 390.662 250.952C391.156 255.502 389.435 258.971 385.254 261.156C384.76 261.414 384.264 261.668 383.523 262.051C385.978 266.284 388.351 270.376 391 274.944C388.015 274.944 385.597 275.116 383.228 274.856C382.331 274.758 381.28 273.826 380.76 272.996C379.06 270.279 377.614 267.409 375.976 264.651C375.472 263.803 374.666 263.127 373.998 262.372C373.715 262.483 373.431 262.594 373.148 262.704C373.148 266.607 373.148 270.509 373.148 274.676C370.249 274.676 367.767 274.676 365 274.676C365 264.026 365 253.26 365 242C368.707 242 372.495 242 376.623 242ZM373.601 256.447C375.22 256.489 376.839 256.567 378.459 256.566C381.011 256.564 382.283 255.278 382.313 252.765C382.343 250.304 381.244 248.858 378.641 248.792C376.833 248.745 375.024 248.783 373.104 248.783C373.104 251.49 373.104 253.742 373.601 256.447Z" fill="#E45B45"/>
<path d="M773 265.431C773 269.109 773 272.429 773 275.964C770.208 275.964 767.718 275.964 764.881 275.964C764.881 271.458 764.881 266.983 764.881 262.211C760.563 262.211 756.577 262.211 752.125 262.211C752.125 266.743 752.125 271.312 752.125 276C749.164 276 746.667 276 744 276C744 264.642 744 253.47 744 242.021C746.496 242.021 748.988 242.021 751.954 242.021C751.954 246.138 751.954 250.349 751.954 254.816C756.4 254.816 760.38 254.816 764.678 254.816C764.678 250.515 764.678 246.383 764.678 242C767.483 242 769.98 242 773 242C773 249.663 773 257.368 773 265.431Z" fill="#E45C47"/>
<path d="M413.164 246.679C414.087 244.682 414.592 241.835 415.848 241.449C418.406 240.662 421.374 241.114 424.16 241.279C424.652 241.309 425.259 242.357 425.51 243.047C429.304 253.474 433.048 263.921 437 274.909C434.295 274.909 431.876 275.186 429.58 274.773C428.656 274.607 427.604 273.037 427.306 271.918C426.649 269.456 425.405 268.344 422.853 268.769C422.172 268.882 421.456 268.786 420.756 268.786C414.084 268.786 414.084 268.786 411.503 274.783C410.644 274.826 409.722 274.9 408.799 274.911C407.059 274.933 405.319 274.918 403 274.918C406.455 265.337 409.771 256.14 413.164 246.679ZM417.789 256.664C417.208 258.466 416.626 260.267 416.012 262.169C418.897 262.169 421.258 262.169 424.005 262.169C422.679 258.241 421.475 254.673 419.983 250.25C419.098 252.852 418.538 254.499 417.789 256.664Z" fill="#E45A44"/>
<path d="M317.421 262.889C314.792 248.449 324.807 238.269 338.101 241.652C343.55 243.039 347.081 246.642 349 252.726C344.945 252.284 341.054 254.342 337.968 250.19C337.148 249.086 334.94 248.715 333.334 248.617C329.486 248.381 326.511 250.912 325.488 254.859C324.224 259.735 325.676 264.439 329.094 266.545C332.415 268.591 335.824 267.45 339.37 265.108C341.782 263.515 345.325 263.697 348.676 263.021C347.376 269.912 342.122 274.44 335.806 274.912C326.213 275.628 320.584 272.024 317.421 262.889Z" fill="#E45A44"/>
<path d="M543.952 271.73C543.952 272.969 543.952 273.877 543.952 275C537.235 275 530.755 275 524 275C524 264.102 524 253.174 524 242C530.5 242 537.064 242 543.791 242C543.791 243.951 543.791 245.767 543.791 248.032C539.87 248.032 535.936 248.032 531.827 248.032C531.827 250.503 531.827 252.534 531.827 254.913C535.272 254.913 538.653 254.913 542.261 254.913C542.261 257.138 542.261 259.023 542.261 261.251C538.815 261.251 535.427 261.251 531.846 261.251C531.846 263.829 531.846 266.071 531.846 268.766C535.203 268.766 538.381 268.876 541.547 268.726C543.628 268.628 544.181 269.561 543.952 271.73Z" fill="#E35640"/>
<path d="M450 252.614C450 248.928 450 245.58 450 242C457.104 242 463.946 242 471 242C471 243.886 471 245.721 471 247.903C466.699 247.903 462.515 247.903 458.14 247.903C458.14 250.302 458.14 252.359 458.14 254.787C461.357 254.787 464.426 254.787 467.667 254.787C467.667 256.902 467.667 258.653 467.667 260.833C464.62 260.833 461.567 260.833 458.102 260.833C458.102 265.419 458.102 269.607 458.102 274C455.291 274 452.888 274 450 274C450 267.007 450 259.978 450 252.614Z" fill="#E45B46"/>
<path d="M712.799 248.246C710.035 248.205 707.602 248.205 705 248.205C705 245.945 705 244.049 705 242C713.725 242 722.24 242 731 242C731 243.97 731 245.855 731 248.075C728.206 248.075 725.445 248.075 722.261 248.075C722.261 257.2 722.261 266.009 722.261 275C719.315 275 716.794 275 713.826 275C713.826 267.349 713.859 259.768 713.795 252.188C713.784 250.886 713.362 249.587 712.799 248.246Z" fill="#E45B45"/>
<path d="M498.975 242C502.796 242 506.279 242 510 242C510 244.088 510 245.973 510 248.215C507.315 248.215 504.669 248.215 501.614 248.215C501.614 257.314 501.614 266.076 501.614 275C498.776 275 496.356 275 493.648 275C493.648 266.199 493.648 257.52 493.648 248.4C490.641 248.4 487.904 248.4 485 248.4C485 246.169 485 244.374 485 242C489.514 242 494.076 242 498.975 242Z" fill="#E45B45"/>
<path d="M682 258.304C682 252.713 682 247.48 682 242C685.074 242 687.887 242 691 242C691 253.231 691 264.491 691 276C688.187 276 685.384 276 682 276C682 270.246 682 264.454 682 258.304Z" fill="#E45D48"/>
<path d="M1044.44 274.241C1034.9 276.598 1026.69 273.367 1022.85 265.928C1019.22 258.915 1021.06 249.806 1027.27 245.047C1033.28 240.451 1039.94 239.751 1046.75 243.042C1053.45 246.279 1056.31 251.895 1055.97 259.068C1055.62 266.465 1051.74 271.438 1044.44 274.241ZM1047.54 257.993C1047.45 254.052 1046.22 250.664 1042.1 249.204C1038.74 248.011 1035.36 248.191 1032.54 250.691C1029.46 253.42 1028.66 259.159 1030.71 263.164C1032.44 266.557 1036.37 268.45 1040.12 267.699C1044.78 266.769 1047.03 263.995 1047.54 257.993Z" fill="#E45A44"/>
<path d="M1072 246.652C1072 245.005 1072 243.685 1072 242.154C1077.78 242.154 1083.41 241.731 1088.94 242.287C1093.35 242.732 1096.17 246.291 1096.66 250.287C1097.25 255.068 1095.56 258.278 1091.21 260.644C1090.83 260.847 1090.48 261.1 1089.92 261.457C1092.23 265.529 1094.49 269.513 1097 273.946C1094.16 273.946 1091.85 274.113 1089.59 273.859C1088.74 273.764 1087.75 272.847 1087.25 272.037C1085.64 269.392 1084.26 266.599 1082.7 263.917C1082.22 263.094 1081.45 262.444 1080.81 261.715C1080.54 261.825 1080.28 261.936 1080.01 262.046C1080.01 265.843 1080.01 269.641 1080.01 273.691C1077.25 273.691 1074.89 273.691 1072 273.691C1072 264.855 1072 255.918 1072 246.652ZM1087.11 248.892C1084.76 248.731 1082.41 248.571 1080.05 248.411C1080.05 251.266 1080.05 253.538 1080.05 256.824C1083.11 255.951 1085.84 255.498 1088.16 254.256C1088.7 253.97 1087.8 250.985 1087.11 248.892Z" fill="#E45B45"/>
<path d="M952.243 241.142C953.178 241.701 954.13 242.136 954.385 242.829C958.245 253.322 962.014 263.848 966 274.909C963.274 274.909 960.855 275.187 958.559 274.773C957.632 274.606 956.59 273.035 956.277 271.912C955.638 269.618 954.534 268.569 952.088 268.861C950.482 269.053 948.817 269.044 947.207 268.867C944.018 268.514 941.852 269.275 941.221 272.894C941.081 273.695 939.605 274.683 938.633 274.827C936.614 275.126 934.52 274.917 932 274.917C934.311 268.471 936.465 262.459 938.622 256.448C940.041 252.497 941.623 248.595 942.829 244.579C943.625 241.929 944.865 240.617 947.751 241.098C949.111 241.324 950.538 241.137 952.243 241.142ZM948.734 251.327C947.513 254.875 946.292 258.423 944.976 262.245C947.933 262.245 950.212 262.245 953.039 262.245C951.679 258.459 950.436 254.999 948.734 251.327Z" fill="#E45A45"/>
<path d="M997.218 257.138C998.611 252.875 1000.17 248.938 1001.16 244.863C1001.92 241.736 1003.45 240.633 1006.51 241.104C1007.85 241.311 1009.25 241.139 1011 241.139C1010.6 242.524 1010.37 243.528 1010.03 244.494C1006.81 253.644 1003.52 262.767 1000.39 271.95C999.652 274.129 998.727 275.052 996.244 274.998C989.012 274.839 988.995 274.981 986.516 268.013C983.388 259.22 980.284 250.418 977 241.139C979.304 241.139 981.255 241.304 983.166 241.096C985.387 240.855 986.162 241.929 986.763 243.853C989.023 251.082 991.433 258.264 994.072 266.334C995.292 262.78 996.215 260.092 997.218 257.138Z" fill="#E45A44"/>
<path d="M867.06 242.894C871.154 242.384 875.187 242.158 879.222 242.041C882.054 241.959 884.889 242.025 888 242.025C888 244.047 888 245.925 888 248.171C883.851 248.171 879.59 248.171 875.071 248.171C875.071 250.628 875.071 252.737 875.071 255.259C878.202 255.259 881.318 255.259 884.645 255.259C884.645 257.438 884.645 259.223 884.645 261.442C881.598 261.442 878.492 261.442 874.995 261.442C874.995 266.16 874.995 270.468 874.995 275C872.178 275 869.755 275 867 275C867 264.338 867 253.781 867.06 242.894Z" fill="#E35742"/>
<path d="M902 247.908C902 245.797 902 244.018 902 242C904.64 242 907.052 242 909.839 242C909.839 250.502 909.839 259.084 909.839 268.002C913.393 268.002 916.59 268.002 920 268.002C920 270.166 920 271.992 920 274C914.113 274 908.318 274 902 274C902 265.428 902 256.834 902 247.908Z" fill="#E45A45"/>
<g clip-path="url(#clip0_2007_89)">
<path d="M221.186 264.498C218.432 263.038 215.538 263.216 212.813 262.746C197.115 260.038 181.396 257.451 165.681 254.843C149.318 252.126 132.945 249.465 116.587 246.715C105.356 244.826 94.1487 242.793 82.9205 240.885C68.8458 238.493 54.76 236.167 40.6804 233.805C29.6131 231.947 18.5482 230.076 7.48179 228.214C3.59285 227.559 1.65521 223.805 3.31438 219.582C5.49435 214.033 7.88974 208.569 10.2392 203.088C21.2708 177.355 32.272 151.608 43.3802 125.907C48.869 113.208 53.4484 100.13 59.3925 87.6243C60.2102 85.9039 61.1148 84.2249 61.9858 82.5302C64.3724 77.8865 68.3581 76.251 73.3161 76.6217C77.3489 76.9233 81.3961 77.1984 85.3916 77.7919C90.4793 78.5477 95.1992 76.662 100.083 76.0436C111.503 74.5976 122.848 74.7153 134.123 76.9776C142.993 78.7573 151.53 81.6031 159.488 86.0028C160.477 86.5494 161.25 86.514 162.237 85.9623C173.557 79.6333 185.762 79.1738 198.165 80.9588C214.059 83.2462 228.752 89.1924 242.93 96.517C246.731 98.4807 250.929 98.4667 254.972 99.0467C263.474 100.267 271.941 101.69 280.397 103.177C284.311 103.865 286.245 107.714 284.844 111.897C282.714 118.257 280.451 124.573 278.158 130.875C268.813 156.557 259.434 182.226 250.076 207.902C249.74 208.822 249.495 209.775 249.153 210.89C252.876 212.275 256.707 212.35 260.402 213.043C264.618 213.834 268.883 214.35 273.115 215.057C275.843 215.513 278.297 216.452 278.952 219.598C279.59 222.657 277.851 224.646 275.711 226.354C266.006 234.099 256.27 241.806 246.554 249.537C240.403 254.432 234.266 259.345 228.014 264.374C225.743 264.498 223.58 264.498 221.186 264.498ZM139.877 154.095C132.024 174.957 124.172 195.819 116.171 217.075C147.975 220.417 178.228 227.475 206.691 240.784C207.611 240.041 207.672 239.165 207.941 238.407C209.607 233.727 211.237 229.033 212.891 224.348C226.431 186.003 239.963 147.657 253.549 109.329C254.176 107.56 253.817 106.667 252.219 105.745C245.619 101.937 238.88 98.413 231.893 95.3824C216.512 88.7118 200.733 83.844 183.674 85.0089C177.244 85.448 171.175 87.1687 165.491 90.2515C164.181 90.9618 163.36 91.9025 162.825 93.3253C155.261 113.476 147.645 133.608 139.877 154.095ZM78.0569 208.301C87.5288 209.823 96.8187 212.123 106.008 214.858C109.223 215.814 109.24 215.811 110.428 212.664C115.197 200.038 119.953 187.408 124.718 174.78C135.094 147.285 145.456 119.784 155.887 92.3099C156.527 90.625 156.271 89.8415 154.66 89.0444C144.109 83.8223 133.043 80.5545 121.296 79.4258C106.751 78.0283 92.6428 79.8088 78.781 84.3094C76.3785 85.0894 75.1601 86.4221 74.2273 88.6332C58.0672 126.937 41.841 165.212 25.6642 203.508C25.0034 205.073 24.0592 206.575 23.9293 208.341C24.8412 208.834 25.6211 208.5 26.4131 208.304C34.5775 206.29 42.9104 205.917 51.2584 205.921C60.1073 205.926 68.903 206.745 78.0569 208.301ZM34.2794 177.211C46.259 148.907 58.3083 120.632 70.1608 92.2747C72.6005 86.4376 74.5125 80.4919 82.4248 80.0665C79.2563 79.411 76.3232 79.2007 73.4256 78.7578C71.3163 78.4353 70.0099 79.1255 68.9671 80.9786C65.9509 86.3382 63.5438 91.9811 61.2529 97.6614C47.0899 132.778 31.7444 167.389 16.851 202.193C14.7329 207.142 12.5833 212.079 10.5305 217.056C9.09448 220.538 10.0819 222.95 13.0668 223.47C22.742 225.156 32.4181 226.838 42.1022 228.472C60.5772 231.588 79.0595 234.661 97.5358 237.77C108.685 239.646 119.827 241.57 130.977 243.445C147.5 246.225 164.023 249.001 180.553 251.74C192.523 253.723 204.509 255.607 216.472 257.632C218.299 257.942 219.147 257.523 219.749 255.732C226.274 236.337 233.195 217.083 240.234 197.871C248.441 175.473 256.614 153.062 264.834 130.668C268.021 121.987 271.298 113.34 274.532 104.682C271.858 103.563 254.049 100.983 252.007 101.399C253.348 102.252 254.738 103.005 255.98 103.952C260.18 107.154 260.719 108.944 258.954 113.853C248.36 143.312 237.744 172.763 227.148 202.221C222.13 216.174 217.135 230.136 212.143 244.098C211.587 245.654 211.127 246.96 208.891 246.55C200.126 244.943 191.329 243.505 182.547 241.988C168.801 239.614 155.061 237.205 141.312 234.852C123.093 231.735 104.863 228.687 86.6469 225.554C72.8212 223.177 59.0058 220.738 45.1947 218.277C38.3682 217.06 31.5445 215.815 24.7529 214.42C20.9215 213.633 19.8322 211.473 21.2837 208.014C25.5468 197.854 29.8506 187.712 34.2794 177.211ZM244.316 223.906C242.165 229.919 240.014 235.931 237.863 241.944C238.083 242.077 238.302 242.21 238.521 242.343C248.929 234.032 259.337 225.72 270.019 217.19C269.141 216.837 268.715 216.573 268.258 216.497C262.075 215.474 255.886 214.487 249.703 213.466C248.347 213.242 247.773 213.92 247.382 215.099C246.446 217.927 245.43 220.729 244.316 223.906Z" fill="black"/>
<path d="M182.443 164.859C174.293 163.761 166.334 162.95 158.335 162.556C157.348 162.508 156.367 162.33 155.383 162.209C154.636 162.118 153.766 162.079 153.828 161.036C153.89 159.997 154.756 160.009 155.505 160.067C161.263 160.509 167.034 160.834 172.773 161.458C182.118 162.473 191.444 163.702 200.61 165.856C204.463 166.761 208.264 167.895 212.065 169.007C212.861 169.24 214.114 169.534 213.718 170.743C213.326 171.944 212.248 171.444 211.39 171.15C202.054 167.948 192.403 166.209 182.443 164.859Z" fill="black"/>
<path d="M148.248 176.503C154.535 176.888 160.636 177.248 166.713 177.849C176.082 178.775 185.393 180.154 194.575 182.265C198.194 183.097 201.764 184.159 205.321 185.233C206.214 185.502 207.886 185.664 207.296 187.139C206.73 188.554 205.447 187.557 204.492 187.247C193.437 183.658 182.025 181.91 170.535 180.499C163.56 179.643 156.555 179.187 149.559 178.605C148.378 178.507 146.615 178.707 148.248 176.503Z" fill="black"/>
<path d="M180.412 147.544C174.781 146.791 169.344 146.455 163.902 146.14C162.569 146.063 160.266 146.59 160.357 144.654C160.436 142.978 162.584 143.885 163.736 143.954C181.397 145.006 198.939 146.904 216.007 151.893C216.957 152.171 217.889 152.512 218.823 152.845C219.541 153.101 220.374 153.435 220.067 154.37C219.711 155.45 218.776 155.145 217.969 154.904C215.279 154.103 212.612 153.211 209.898 152.503C200.291 149.999 190.505 148.533 180.412 147.544Z" fill="black"/>
<path d="M182.211 130.79C177.794 130.451 173.602 130.121 169.41 129.796C168.67 129.738 167.92 129.749 167.189 129.635C166.438 129.518 165.629 129.277 165.772 128.282C165.901 127.383 166.731 127.473 167.361 127.507C171.314 127.715 175.278 127.824 179.213 128.223C190.201 129.335 201.167 130.643 211.97 133.034C216.079 133.944 220.153 134.997 224.121 136.415C224.944 136.709 226.111 136.999 225.589 138.219C225.176 139.184 224.184 138.818 223.398 138.546C210.123 133.947 196.301 132.26 182.211 130.79Z" fill="black"/>
<path d="M180.018 197.022C186.782 198.011 193.18 199.613 199.447 201.739C200.224 202.002 201.509 202.236 200.991 203.5C200.507 204.68 199.433 204.069 198.61 203.792C186.323 199.665 173.587 197.912 160.779 196.458C155.032 195.806 149.266 195.487 143.51 194.998C142.578 194.919 141.181 195.213 141.288 193.753C141.39 192.358 142.774 192.688 143.69 192.76C153.726 193.545 163.764 194.334 173.717 195.914C175.753 196.237 177.78 196.614 180.018 197.022Z" fill="black"/>
<path d="M215.001 118.803C205.907 116.856 196.908 115.718 187.869 114.88C183.105 114.439 178.357 113.786 173.557 113.786C172.672 113.786 171.45 113.775 171.495 112.562C171.544 111.246 172.828 111.59 173.657 111.603C181.429 111.718 189.129 112.747 196.829 113.646C206.582 114.784 216.258 116.443 225.719 119.168C227.146 119.579 228.55 120.075 229.962 120.542C230.682 120.78 231.552 121.078 231.342 121.992C231.082 123.119 230.064 122.904 229.297 122.63C225.245 121.186 221.069 120.199 216.905 119.166C216.347 119.027 215.774 118.945 215.001 118.803Z" fill="black"/>
<path d="M50.009 186.458C46.7838 180.132 43.8963 173.888 45.5541 166.663C47.0392 160.19 51.0092 155.327 56.1393 151.48C68.2914 142.367 82.0389 139.448 96.9352 141.629C102.816 142.491 108.325 144.445 113.148 148.034C122.846 155.252 124.912 165.983 118.284 176.029C113.984 182.545 109.189 188.682 102.059 192.466C89.2272 199.276 75.9621 201.079 62.1587 195.826C57.281 193.97 53.1155 191.006 50.009 186.458ZM82.5321 143.479C81.8772 143.569 81.2207 143.649 80.5675 143.751C69.8099 145.417 60.1565 149.375 52.8242 157.756C48.4865 162.715 46.0174 168.477 47.9614 175.165C50.2311 182.974 56.2318 187.128 63.461 189.679C72.7772 192.967 82.2869 192.94 91.7813 190.551C100.19 188.435 107.691 184.623 113.745 178.191C122.924 168.439 121.49 155.923 110.201 148.791C101.84 143.508 92.5463 142.67 82.5321 143.479Z" fill="black"/>
<path d="M90.0345 117.765C89.8557 118.039 89.7027 118.231 89.7489 118.333C90.6653 120.365 90.9254 122.311 88.9714 123.916C86.6114 125.856 83.9131 126.616 80.8848 126.092C79.6422 125.877 79.5419 125.05 79.8492 124.051C80.92 120.569 81.5554 116.99 82.1848 113.414C82.388 112.258 82.9441 111.741 84.0714 111.489C85.2071 111.236 86.3269 111.035 87.4879 111.038C89.2966 111.042 91.0581 111.307 91.8632 113.174C92.699 115.112 91.5923 116.484 90.0345 117.765ZM88.0957 114.627C87.5317 113.807 86.7252 113.646 86.0379 114.258C85.3423 114.878 85.2504 115.77 85.8223 116.665C86.9801 116.565 87.8449 116.146 88.0957 114.627ZM86.2374 122.314C86.8678 121.632 86.8233 121.007 86.0097 120.543C85.4773 120.239 84.9145 120.268 84.5039 120.804C84.0885 121.345 83.8509 122.011 84.2639 122.586C84.7774 123.301 85.4046 122.801 86.2374 122.314Z" fill="black"/>
<path d="M82.3865 104.143C80.4747 103.312 81.3113 104.995 81.0095 105.566C80.4368 106.651 80.6349 108.346 78.6045 108.045C77.4466 107.873 76.7517 107.541 77.0937 106.148C77.9994 102.46 78.8524 98.7577 79.6925 95.0533C80.2087 92.7765 82.0831 92.8543 83.7718 92.6378C85.9293 92.3611 88.1836 92.0318 89.3033 94.5861C90.1611 96.5429 89.2031 98.699 86.8527 100.541C86.344 100.939 85.6735 101.167 85.4056 101.94C85.641 103.211 86.501 104.256 87.1531 105.379C87.8209 106.53 87.4918 107.167 86.4579 107.791C85.3216 108.477 84.659 108.141 84.1014 107.04C83.6176 106.085 83.014 105.19 82.3865 104.143ZM83.5998 95.7723C82.8903 96.8761 82.4525 98.0243 82.8971 99.5064C84.5822 98.863 86.0576 98.1112 85.9562 96.2666C85.8978 95.204 84.7238 95.4779 83.5998 95.7723Z" fill="black"/>
<path d="M91.7763 118.288C92.5419 115.342 93.9451 113.043 96.3701 111.51C99.653 109.433 102.766 111.124 102.945 114.973C103.1 118.289 102.034 121.168 99.9932 123.708C98.2152 125.92 95.5333 126.853 93.6813 125.992C91.7364 125.087 90.9002 122.734 91.4536 119.7C91.5278 119.293 91.6363 118.892 91.7763 118.288ZM97.8212 114.022C95.6049 115.881 95.1446 118.452 94.9899 121.129C94.9471 121.869 94.9773 122.715 95.9234 122.915C96.8063 123.102 97.2697 122.407 97.6598 121.779C98.7743 119.985 99.3523 118.026 99.2793 115.901C99.251 115.078 99.2765 114.189 97.8212 114.022Z" fill="black"/>
<path d="M121.845 113.365C124.535 109.789 124.535 109.789 127.106 111.387C126.596 112.985 125.296 114.061 124.278 115.297C121.672 118.461 121.599 118.461 123.864 121.824C124.54 122.827 124.661 123.496 123.66 124.334C122.469 125.332 121.515 125.472 120.659 123.992C120.053 122.945 119.421 121.913 118.57 120.487C118.262 121.844 117.965 122.767 117.858 123.712C117.688 125.21 116.739 125.383 115.558 125.222C114.149 125.031 114.183 124.075 114.415 123C115.146 119.611 115.858 116.217 116.583 112.826C116.903 111.332 117.609 110.373 119.336 110.906C121.163 111.47 120.174 112.7 119.999 113.74C119.934 114.13 119.896 114.524 119.836 114.996C120.959 114.945 121.172 114.004 121.845 113.365Z" fill="black"/>
<path d="M108.837 110.726C112.975 110.12 114.427 111.336 114.37 115.309C114.308 119.615 112.979 123.342 108.92 125.458C105.855 127.057 102.868 125.374 102.868 121.842C102.866 117.26 104.244 113.163 108.837 110.726ZM110.074 119.724C110.534 118.309 111 116.893 111.025 115.386C111.037 114.694 110.865 114.017 110.157 113.744C109.4 113.452 108.894 113.987 108.504 114.525C107.57 115.815 107.013 117.281 106.713 118.841C106.451 120.202 105.778 122.086 107.251 122.654C108.928 123.302 109.254 121.207 110.074 119.724Z" fill="black"/>
<path d="M101.839 94.8768C102.576 94.1952 103.131 93.5394 103.83 93.1331C105.397 92.2224 107.179 91.5947 108.621 93.1139C110.017 94.5842 109.488 96.5647 109.158 98.33C108.98 99.2749 108.021 99.0592 107.279 99.0061C106.428 98.9452 105.833 98.6547 105.918 97.6552C105.967 97.0941 106.24 96.518 105.827 95.9815C103.938 96.6664 101.344 101.758 102.12 103.522C102.921 105.342 103.986 104.451 104.7 103.442C105.699 102.03 106.765 101.349 108.405 102.33C107.922 105.438 105.582 107.677 102.697 107.83C100.143 107.966 98.2585 105.959 98.4213 103.173C98.6013 100.094 99.8276 97.4122 101.839 94.8768Z" fill="black"/>
<path d="M115.783 106.654C116.105 102.489 117.298 98.6832 118.061 94.7905C118.422 92.9491 119.463 92.1291 121.211 91.8518C123.206 91.5352 125.076 91.6744 126.4 93.3732C127.513 94.8025 127.542 96.4447 126.732 98.0663C125.789 99.9548 124.16 101.152 122.273 101.82C120.5 102.448 119.548 103.483 119.348 105.325C119.076 107.829 117.664 107.81 115.783 106.654ZM123.161 97.5173C123.598 96.438 123.758 95.4673 122.192 95.0051C121.397 96.2569 120.849 97.4437 121.052 98.8822C122.104 99.0389 122.507 98.3646 123.161 97.5173Z" fill="black"/>
<path d="M94.582 96.8458C94.4452 97.5528 93.9853 98.0694 94.3832 98.6404C95.499 99.2253 97.5874 97.6526 97.8068 99.9238C98.0222 102.154 95.9913 101.212 94.8935 101.512C93.7239 101.831 92.8056 102.391 93.0837 103.719C93.3743 105.108 94.4764 104.438 95.3142 104.359C96.1166 104.284 97.0653 103.97 97.3163 105.158C97.5416 106.225 96.9895 106.93 95.9909 107.22C95.2007 107.45 94.3806 107.594 93.5645 107.713C89.3851 108.319 88.5348 107.435 89.4127 103.33C89.9321 100.902 90.6247 98.5081 91.0754 96.0685C91.4477 94.0532 92.4273 92.987 94.5348 92.9866C95.6871 92.9865 96.8379 92.7792 97.9921 92.7353C98.8499 92.7027 99.7724 92.8016 99.7121 93.9784C99.6629 94.9383 99.2568 95.6945 98.1266 95.8911C96.9575 96.0944 95.5907 95.4842 94.582 96.8458Z" fill="black"/>
<path d="M128.748 94.0321C129.854 92.6561 135.088 91.3822 136.326 91.9957C136.845 92.2526 137.073 92.6426 136.948 93.1901C136.784 93.9055 136.702 94.7232 135.771 94.8906C135.287 94.9776 134.78 95.031 134.294 94.9867C132.252 94.8007 131.409 95.7329 131.615 97.7896C131.866 97.8408 132.093 97.918 132.324 97.9296C133.392 97.9829 134.872 97.3 135.103 99.0557C135.349 100.931 133.823 100.857 132.592 100.924C130.793 101.02 130.175 101.98 130.347 103.638C131.288 104.111 132.069 103.549 132.876 103.585C133.533 103.613 134.294 103.433 134.492 104.311C134.695 105.21 134.394 105.946 133.475 106.319C131.41 107.157 129.249 107.089 127.123 106.797C125.846 106.622 126.133 105.541 126.305 104.615C126.953 101.117 127.595 97.6197 128.748 94.0321Z" fill="black"/>
<path d="M110.85 101.005C111.349 98.7036 111.856 96.6178 112.231 94.5085C112.642 92.1936 113.923 91.7472 116.195 92.5809C115.517 95.8985 114.836 99.1726 114.183 102.452C113.974 103.503 113.847 104.57 113.67 105.627C113.437 107.02 112.627 107.583 111.223 107.382C109.706 107.164 109.995 106.058 110.116 105.108C110.283 103.801 110.566 102.509 110.85 101.005Z" fill="black"/>
<path d="M51.8054 173.672C51.2156 170.043 52.4995 166.956 54.201 164.279C59.5889 155.803 66.2083 149.007 77.3615 149.392C80.0051 149.484 82.656 149.347 85.3019 149.398C86.6757 149.425 87.8163 149.047 89.0175 148.342C93.6726 145.609 98.5725 144.79 103.723 146.94C105.87 147.836 107.588 149.219 108.441 151.434C108.945 152.743 110.051 153.513 110.854 154.549C113.828 158.388 114.881 162.869 115.029 167.57C115.125 170.635 114.025 173.332 111.907 175.7C104.34 184.155 94.5524 187.866 83.6335 188.982C75.246 189.838 67.1101 188.667 59.7084 184.325C55.7001 181.973 52.1875 179.083 51.8054 173.672ZM111.127 168.536C112.842 164.152 112.328 160.157 109.182 156.587C108.987 156.676 108.891 156.691 108.845 156.747C108.691 156.937 108.522 157.125 108.415 157.342C105.544 163.176 100.412 165.326 94.3915 165.463C90.1121 165.561 86.1878 164.294 84.0279 159.995C82.6041 157.162 83.6169 154.538 84.9928 151.637C80.3916 151.634 76.1029 151.219 71.8947 152.096C66.0287 153.319 62.3323 157.743 58.4611 161.812C57.2055 163.132 56.2969 164.723 55.7092 166.491C53.7114 172.501 58.0272 177.75 64.2346 176.804C65.1282 176.667 66.0298 176.475 66.8775 176.169C68.4202 175.612 69.4088 175.945 70.4215 177.374C72.8978 180.869 76.3591 182.13 80.6116 181.339C84.3934 180.634 87.2637 178.521 89.7465 175.747C90.77 174.604 91.6989 173.984 93.3674 174.843C100.487 178.509 107.255 176.169 111.127 168.536ZM98.3449 150.641C95.5575 150.297 93.4036 151.55 91.5599 153.446C90.6579 154.374 90.194 155.569 90.6869 156.851C91.2175 158.23 92.2149 159.188 93.761 159.377C95.6834 159.612 97.5375 159.368 99.2446 158.405C100.892 157.475 102.272 156.268 102.087 154.17C101.912 152.197 100.562 151.177 98.3449 150.641Z" fill="black"/>
<path d="M79.0831 174.805C83.366 174.372 86.7292 172.223 90.1397 170.185C91.1899 169.557 92.2542 168.72 93.5367 170.487C88.753 171.999 85.5961 176.497 80.3125 176.713C78.4044 176.791 78.1364 176.431 79.0831 174.805Z" fill="black"/>
<path d="M64.1609 160.588C64.9946 160.464 65.475 160.74 65.658 161.376C66.062 162.78 62.9854 167.374 61.5342 167.382C59.954 167.39 59.8792 166.263 60.2856 165.113C60.9675 163.184 62.2054 161.674 64.1609 160.588Z" fill="black"/>
<path d="M77.0824 166.877C76.1508 168.692 75.2617 170.354 74.3533 172.005C74.0042 172.639 73.6798 173.507 72.741 173.101C71.8504 172.716 72.131 171.844 72.3265 171.15C72.8484 169.297 73.7819 167.651 75.2021 166.355C75.8566 165.758 76.7621 165.129 77.0824 166.877Z" fill="black"/>
<path d="M74.3344 155.273C75.3437 154.706 76.1658 154.019 77.4379 154.935C76.3306 156.97 74.6254 157.853 72.2171 158.185C72.1769 156.487 73.3125 156.026 74.3344 155.273Z" fill="black"/>
<path d="M105.314 171.026C103.902 171.265 101.853 168.94 102.336 167.816C102.747 166.856 103.523 167.009 104.153 167.53C105.176 168.377 105.543 169.532 105.314 171.026Z" fill="black"/>
</g>
<defs>
<clipPath id="clip0_2007_89">
<rect width="286" height="207" fill="white" transform="translate(0 57)"/>
</clipPath>
</defs>
</svg>
