<?xml version="1.0" standalone="no"?>
<!DOCTYPE svg PUBLIC "-//W3C//DTD SVG 20010904//EN"
 "http://www.w3.org/TR/2001/REC-SVG-20010904/DTD/svg10.dtd">
<svg version="1.0" xmlns="http://www.w3.org/2000/svg" width="66px" height="58px" viewBox="0 0 300.000000 293.000000" preserveAspectRatio="xMidYMid meet">
    <g transform="translate(0.000000,293.000000) scale(0.100000,-0.100000)" fill="#E35640" stroke-width="50">
        <path d="M1350 2525 c-185 -34 -370 -121 -527 -248 -64 -51 -75 -74 -48 -97
        17 -14 8 -19 126 72 195 149 412 222 659 222 138 -1 216 -12 335 -51 487 -158
        806 -639 756 -1142 -47 -462 -367 -839 -818 -961 -100 -28 -330 -38 -441 -20
        -301 48 -588 235 -750 489 -55 86 -109 209 -139 317 -26 92 -28 112 -27 279 0
        151 4 192 22 257 41 149 108 291 189 397 39 51 41 66 11 82 -20 11 -25 8 -54
        -27 -131 -155 -229 -423 -241 -654 -21 -409 176 -799 517 -1025 215 -143 436
        -204 699 -192 483 21 902 343 1049 807 43 136 56 238 49 404 -7 179 -36 298
        -111 452 -168 342 -474 575 -840 639 -108 18 -313 18 -416 0z"/>
        <path d="M1428 2390 c-29 -29 -30 -33 -26 -104 l3 -74 -60 -17 c-60 -17 -70
        -18 -147 -14 -190 9 -432 -339 -503 -726 -25 -130 -17 -320 14 -392 24 -53 89
        -123 116 -123 7 0 26 -17 41 -38 15 -20 43 -54 62 -74 32 -34 35 -42 36 -105
        3 -174 156 -281 339 -239 90 21 115 20 226 -9 132 -35 229 -32 244 8 12 31
        -10 42 -82 39 -49 -2 -93 3 -148 19 -92 26 -162 28 -256 9 -88 -18 -146 -4
        -199 47 -45 44 -62 90 -55 148 6 59 37 98 95 123 76 33 94 71 78 168 -14 90
        24 173 98 211 47 24 274 92 331 99 116 14 246 -38 340 -137 33 -34 80 -81 104
        -103 24 -23 52 -59 62 -81 23 -50 24 -126 2 -168 -26 -51 -192 -236 -237 -264
        -50 -32 -57 -42 -45 -65 15 -28 42 -22 100 22 81 61 174 172 286 339 125 188
        177 383 153 578 -42 348 -265 617 -597 722 -76 25 -86 31 -176 118 -133 127
        -148 134 -199 83z m364 -340 c167 -163 354 -345 415 -404 62 -60 111 -111 109
        -115 -2 -3 -194 -5 -425 -3 l-421 2 0 411 c0 263 4 409 10 407 5 -1 146 -136
        312 -298z m23 89 c13 -13 -10 -33 -29 -26 -8 3 -20 16 -26 28 -12 20 -11 21
        16 15 16 -4 33 -12 39 -17z m-413 -296 c-2 -164 0 -308 3 -320 3 -12 15 -32
        27 -43 22 -20 32 -20 463 -20 l440 1 -1 -98 c-2 -118 -22 -209 -70 -311 l-35
        -77 -18 53 c-14 39 -38 73 -96 135 -132 139 -167 169 -245 206 -68 32 -85 36
        -176 39 -97 4 -108 2 -254 -42 -94 -29 -169 -58 -196 -77 -81 -56 -124 -166
        -104 -266 14 -63 7 -76 -52 -100 -21 -8 -49 -28 -62 -44 -14 -16 -27 -29 -29
        -29 -3 0 -21 20 -41 45 l-37 45 24 9 c29 11 75 65 82 94 2 12 9 62 15 110 27
        221 134 526 255 732 63 108 70 131 50 187 -19 55 -19 56 8 61 56 11 52 32 49
        -290z m-141 251 c38 -34 35 -75 -13 -158 -35 -63 -46 -75 -63 -71 -70 20 -84
        18 -115 -13 -49 -49 -37 -112 26 -138 32 -13 33 -16 22 -42 -18 -42 -21 -43
        -69 -27 -75 27 -129 -4 -129 -74 0 -31 6 -44 30 -64 16 -14 43 -28 60 -32 29
        -6 31 -9 24 -38 -9 -45 -12 -47 -40 -37 -38 15 -50 12 -83 -16 -44 -37 -44
        -91 0 -128 17 -14 39 -26 50 -26 18 0 20 -5 14 -62 -14 -132 -36 -168 -101
        -168 -45 0 -79 32 -105 98 -18 47 -22 77 -22 172 -1 165 37 323 118 496 122
        262 303 412 396 328z m637 -11 c111 -60 202 -133 262 -209 57 -71 136 -202
        127 -210 -2 -2 -44 37 -93 87 -49 50 -152 150 -229 223 -177 165 -181 172 -67
        109z m-731 -288 c6 -19 -13 -34 -35 -28 -13 3 -22 13 -22 25 0 15 6 19 27 16
        14 -2 28 -7 30 -13z m1158 -166 c4 -17 4 -33 1 -37 -11 -11 -49 35 -43 52 10
        27 35 18 42 -15z m-1278 -51 c19 -9 27 -19 25 -30 -4 -22 -13 -22 -57 -4 -34
        15 -42 26 -28 39 10 10 27 8 60 -5z m-63 -244 c19 -7 21 -44 3 -44 -22 0 -51
        26 -43 38 8 13 17 15 40 6z m1244 -391 c-5 -25 -28 -28 -28 -4 0 12 6 21 16
        21 9 0 14 -7 12 -17z"/>
        <path d="M1614 1938 c-77 -74 -87 -99 -52 -122 15 -9 30 1 93 64 41 41 75 82
        75 90 0 17 -19 40 -33 40 -5 0 -43 -32 -83 -72z"/>
        <path d="M1720 1815 c-63 -63 -73 -78 -64 -93 22 -34 45 -25 111 40 77 76 89
        94 72 114 -21 26 -44 15 -119 -61z"/>
        <path d="M1842 1707 c-75 -76 -89 -109 -47 -115 14 -2 44 21 95 73 63 63 73
        78 64 93 -20 31 -38 23 -112 -51z"/>
        <path d="M1590 1163 c-226 -79 -227 -401 -1 -478 165 -56 331 64 331 241 0
        112 -70 208 -174 239 -62 19 -99 18 -156 -2z m185 -87 c95 -73 108 -186 32
        -273 -75 -86 -199 -86 -274 0 -69 79 -64 186 12 257 40 38 75 50 137 47 43 -3
        64 -9 93 -31z"/>
    </g>
</svg>
